<svg width="234" height="25" viewBox="0 0 234 25" fill="none" xmlns="http://www.w3.org/2000/svg">
<path d="M14.6562 20.3438V24H3.20312V20.3438H14.6562ZM4.71875 1.25V24H0.03125V1.25H4.71875ZM32.6094 20.3438V24H20.5V20.3438H32.6094ZM22.0312 1.25V24H17.3438V1.25H22.0312ZM31.0312 10.5156V14.0781H20.5V10.5156H31.0312ZM32.5938 1.25V4.92188H20.5V1.25H32.5938ZM42.3281 24H37.375L37.4062 20.3438H42.3281C43.5573 20.3438 44.5938 20.0677 45.4375 19.5156C46.2812 18.9531 46.9167 18.1354 47.3438 17.0625C47.7812 15.9896 48 14.6927 48 13.1719V12.0625C48 10.8958 47.875 9.86979 47.625 8.98438C47.3854 8.09896 47.026 7.35417 46.5469 6.75C46.0677 6.14583 45.4792 5.69271 44.7812 5.39062C44.0833 5.07812 43.2812 4.92188 42.375 4.92188H37.2812V1.25H42.375C43.8958 1.25 45.2865 1.51042 46.5469 2.03125C47.8177 2.54167 48.9167 3.27604 49.8438 4.23438C50.7708 5.19271 51.4844 6.33854 51.9844 7.67188C52.4948 8.99479 52.75 10.4688 52.75 12.0938V13.1719C52.75 14.7865 52.4948 16.2604 51.9844 17.5938C51.4844 18.9271 50.7708 20.0729 49.8438 21.0312C48.9271 21.9792 47.8281 22.7135 46.5469 23.2344C45.276 23.7448 43.8698 24 42.3281 24ZM40.0312 1.25V24H35.3438V1.25H40.0312ZM61.1406 1.25V24H56.4688V1.25H61.1406ZM83.5625 12.1094V21.125C83.2083 21.5521 82.6615 22.0156 81.9219 22.5156C81.1823 23.0052 80.2292 23.4271 79.0625 23.7812C77.8958 24.1354 76.4844 24.3125 74.8281 24.3125C73.3594 24.3125 72.0208 24.0729 70.8125 23.5938C69.6042 23.1042 68.5625 22.3906 67.6875 21.4531C66.8229 20.5156 66.1562 19.3698 65.6875 18.0156C65.2188 16.651 64.9844 15.0938 64.9844 13.3438V11.9219C64.9844 10.1719 65.2083 8.61458 65.6562 7.25C66.1146 5.88542 66.7656 4.73438 67.6094 3.79688C68.4531 2.85938 69.4583 2.14583 70.625 1.65625C71.7917 1.16667 73.0885 0.921875 74.5156 0.921875C76.4948 0.921875 78.1198 1.24479 79.3906 1.89062C80.6615 2.52604 81.6302 3.41146 82.2969 4.54688C82.974 5.67188 83.3906 6.96354 83.5469 8.42188H79C78.8854 7.65104 78.6667 6.97917 78.3438 6.40625C78.0208 5.83333 77.5573 5.38542 76.9531 5.0625C76.3594 4.73958 75.5885 4.57812 74.6406 4.57812C73.8594 4.57812 73.1615 4.73958 72.5469 5.0625C71.9427 5.375 71.4323 5.83854 71.0156 6.45312C70.599 7.06771 70.2812 7.82812 70.0625 8.73438C69.8438 9.64062 69.7344 10.6927 69.7344 11.8906V13.3438C69.7344 14.5312 69.849 15.5833 70.0781 16.5C70.3073 17.4062 70.6458 18.1719 71.0938 18.7969C71.5521 19.4115 72.1146 19.875 72.7812 20.1875C73.4479 20.5 74.224 20.6562 75.1094 20.6562C75.849 20.6562 76.4635 20.5938 76.9531 20.4688C77.4531 20.3438 77.8542 20.1927 78.1562 20.0156C78.4688 19.8281 78.7083 19.651 78.875 19.4844V15.4531H74.5938V12.1094H83.5625ZM96.5938 5.14062L90.4062 24H85.4219L93.875 1.25H97.0469L96.5938 5.14062ZM101.734 24L95.5312 5.14062L95.0312 1.25H98.2344L106.734 24H101.734ZM101.453 15.5312V19.2031H89.4375V15.5312H101.453ZM118.047 17.0156V1.25H122.719V17.0156C122.719 18.5365 122.385 19.8438 121.719 20.9375C121.052 22.0208 120.141 22.8542 118.984 23.4375C117.839 24.0208 116.547 24.3125 115.109 24.3125C113.62 24.3125 112.302 24.0625 111.156 23.5625C110.01 23.0625 109.109 22.2969 108.453 21.2656C107.797 20.224 107.469 18.9062 107.469 17.3125H112.172C112.172 18.1458 112.286 18.8073 112.516 19.2969C112.755 19.7865 113.094 20.1354 113.531 20.3438C113.969 20.5521 114.495 20.6562 115.109 20.6562C115.703 20.6562 116.219 20.5156 116.656 20.2344C117.094 19.9531 117.432 19.5417 117.672 19C117.922 18.4583 118.047 17.7969 118.047 17.0156ZM145.406 12.0938V13.1719C145.406 14.901 145.172 16.4531 144.703 17.8281C144.234 19.2031 143.573 20.375 142.719 21.3438C141.865 22.3021 140.844 23.0365 139.656 23.5469C138.479 24.0573 137.172 24.3125 135.734 24.3125C134.307 24.3125 133 24.0573 131.812 23.5469C130.635 23.0365 129.615 22.3021 128.75 21.3438C127.885 20.375 127.214 19.2031 126.734 17.8281C126.266 16.4531 126.031 14.901 126.031 13.1719V12.0938C126.031 10.3542 126.266 8.80208 126.734 7.4375C127.203 6.0625 127.865 4.89062 128.719 3.92188C129.583 2.95312 130.604 2.21354 131.781 1.70312C132.969 1.19271 134.276 0.9375 135.703 0.9375C137.141 0.9375 138.448 1.19271 139.625 1.70312C140.812 2.21354 141.833 2.95312 142.688 3.92188C143.552 4.89062 144.219 6.0625 144.688 7.4375C145.167 8.80208 145.406 10.3542 145.406 12.0938ZM140.672 13.1719V12.0625C140.672 10.8542 140.562 9.79167 140.344 8.875C140.125 7.95833 139.802 7.1875 139.375 6.5625C138.948 5.9375 138.427 5.46875 137.812 5.15625C137.198 4.83333 136.495 4.67188 135.703 4.67188C134.911 4.67188 134.208 4.83333 133.594 5.15625C132.99 5.46875 132.474 5.9375 132.047 6.5625C131.63 7.1875 131.312 7.95833 131.094 8.875C130.875 9.79167 130.766 10.8542 130.766 12.0625V13.1719C130.766 14.3698 130.875 15.4323 131.094 16.3594C131.312 17.276 131.635 18.0521 132.062 18.6875C132.49 19.3125 133.01 19.7865 133.625 20.1094C134.24 20.4323 134.943 20.5938 135.734 20.5938C136.526 20.5938 137.229 20.4323 137.844 20.1094C138.458 19.7865 138.974 19.3125 139.391 18.6875C139.807 18.0521 140.125 17.276 140.344 16.3594C140.562 15.4323 140.672 14.3698 140.672 13.1719ZM157.688 14.0156H151.844L151.812 10.7969H156.719C157.583 10.7969 158.292 10.6875 158.844 10.4688C159.396 10.2396 159.807 9.91146 160.078 9.48438C160.359 9.04688 160.5 8.51562 160.5 7.89062C160.5 7.18229 160.365 6.60938 160.094 6.17188C159.833 5.73438 159.422 5.41667 158.859 5.21875C158.307 5.02083 157.594 4.92188 156.719 4.92188H153.469V24H148.781V1.25H156.719C158.042 1.25 159.224 1.375 160.266 1.625C161.318 1.875 162.208 2.25521 162.938 2.76562C163.667 3.27604 164.224 3.92188 164.609 4.70312C164.995 5.47396 165.188 6.39062 165.188 7.45312C165.188 8.39062 164.974 9.25521 164.547 10.0469C164.13 10.8385 163.469 11.4844 162.562 11.9844C161.667 12.4844 160.495 12.7604 159.047 12.8125L157.688 14.0156ZM157.484 24H150.562L152.391 20.3438H157.484C158.307 20.3438 158.979 20.2135 159.5 19.9531C160.021 19.6823 160.406 19.3177 160.656 18.8594C160.906 18.401 161.031 17.875 161.031 17.2812C161.031 16.6146 160.917 16.0365 160.688 15.5469C160.469 15.0573 160.115 14.6823 159.625 14.4219C159.135 14.151 158.49 14.0156 157.688 14.0156H153.172L153.203 10.7969H158.828L159.906 12.0625C161.292 12.0417 162.406 12.2865 163.25 12.7969C164.104 13.2969 164.724 13.9479 165.109 14.75C165.505 15.5521 165.703 16.4115 165.703 17.3281C165.703 18.7865 165.385 20.0156 164.75 21.0156C164.115 22.0052 163.182 22.75 161.953 23.25C160.734 23.75 159.245 24 157.484 24ZM178.125 14.0156H172.281L172.25 10.7969H177.156C178.021 10.7969 178.729 10.6875 179.281 10.4688C179.833 10.2396 180.245 9.91146 180.516 9.48438C180.797 9.04688 180.938 8.51562 180.938 7.89062C180.938 7.18229 180.802 6.60938 180.531 6.17188C180.271 5.73438 179.859 5.41667 179.297 5.21875C178.745 5.02083 178.031 4.92188 177.156 4.92188H173.906V24H169.219V1.25H177.156C178.479 1.25 179.661 1.375 180.703 1.625C181.755 1.875 182.646 2.25521 183.375 2.76562C184.104 3.27604 184.661 3.92188 185.047 4.70312C185.432 5.47396 185.625 6.39062 185.625 7.45312C185.625 8.39062 185.411 9.25521 184.984 10.0469C184.568 10.8385 183.906 11.4844 183 11.9844C182.104 12.4844 180.932 12.7604 179.484 12.8125L178.125 14.0156ZM177.922 24H171L172.828 20.3438H177.922C178.745 20.3438 179.417 20.2135 179.938 19.9531C180.458 19.6823 180.844 19.3177 181.094 18.8594C181.344 18.401 181.469 17.875 181.469 17.2812C181.469 16.6146 181.354 16.0365 181.125 15.5469C180.906 15.0573 180.552 14.6823 180.062 14.4219C179.573 14.151 178.927 14.0156 178.125 14.0156H173.609L173.641 10.7969H179.266L180.344 12.0625C181.729 12.0417 182.844 12.2865 183.688 12.7969C184.542 13.2969 185.161 13.9479 185.547 14.75C185.943 15.5521 186.141 16.4115 186.141 17.3281C186.141 18.7865 185.823 20.0156 185.188 21.0156C184.552 22.0052 183.62 22.75 182.391 23.25C181.172 23.75 179.682 24 177.922 24Z" fill="black"/>
<path d="M189.594 21.8281C189.594 21.1615 189.823 20.6042 190.281 20.1562C190.75 19.7083 191.37 19.4844 192.141 19.4844C192.911 19.4844 193.526 19.7083 193.984 20.1562C194.453 20.6042 194.688 21.1615 194.688 21.8281C194.688 22.4948 194.453 23.0521 193.984 23.5C193.526 23.9479 192.911 24.1719 192.141 24.1719C191.37 24.1719 190.75 23.9479 190.281 23.5C189.823 23.0521 189.594 22.4948 189.594 21.8281ZM210.781 18.0469C210.781 17.6406 210.719 17.276 210.594 16.9531C210.479 16.6198 210.26 16.3177 209.938 16.0469C209.615 15.7656 209.161 15.4896 208.578 15.2188C207.995 14.9479 207.24 14.6667 206.312 14.375C205.281 14.0417 204.302 13.6667 203.375 13.25C202.458 12.8333 201.646 12.349 200.938 11.7969C200.24 11.2344 199.688 10.5833 199.281 9.84375C198.885 9.10417 198.688 8.24479 198.688 7.26562C198.688 6.31771 198.896 5.45833 199.312 4.6875C199.729 3.90625 200.312 3.23958 201.062 2.6875C201.812 2.125 202.698 1.69271 203.719 1.39062C204.75 1.08854 205.88 0.9375 207.109 0.9375C208.786 0.9375 210.25 1.23958 211.5 1.84375C212.75 2.44792 213.719 3.27604 214.406 4.32812C215.104 5.38021 215.453 6.58333 215.453 7.9375H210.797C210.797 7.27083 210.656 6.6875 210.375 6.1875C210.104 5.67708 209.688 5.27604 209.125 4.98438C208.573 4.69271 207.875 4.54688 207.031 4.54688C206.219 4.54688 205.542 4.67188 205 4.92188C204.458 5.16146 204.052 5.48958 203.781 5.90625C203.51 6.3125 203.375 6.77083 203.375 7.28125C203.375 7.66667 203.469 8.01562 203.656 8.32812C203.854 8.64062 204.146 8.93229 204.531 9.20312C204.917 9.47396 205.391 9.72917 205.953 9.96875C206.516 10.2083 207.167 10.4427 207.906 10.6719C209.146 11.0469 210.234 11.4688 211.172 11.9375C212.12 12.4062 212.911 12.9323 213.547 13.5156C214.182 14.099 214.661 14.7604 214.984 15.5C215.307 16.2396 215.469 17.0781 215.469 18.0156C215.469 19.0052 215.276 19.8906 214.891 20.6719C214.505 21.4531 213.948 22.1146 213.219 22.6562C212.49 23.1979 211.62 23.6094 210.609 23.8906C209.599 24.1719 208.469 24.3125 207.219 24.3125C206.094 24.3125 204.984 24.1667 203.891 23.875C202.797 23.5729 201.802 23.1198 200.906 22.5156C200.021 21.9115 199.312 21.1406 198.781 20.2031C198.25 19.2656 197.984 18.1562 197.984 16.875H202.688C202.688 17.5833 202.797 18.1823 203.016 18.6719C203.234 19.1615 203.542 19.5573 203.938 19.8594C204.344 20.1615 204.823 20.3802 205.375 20.5156C205.938 20.651 206.552 20.7188 207.219 20.7188C208.031 20.7188 208.698 20.6042 209.219 20.375C209.75 20.1458 210.141 19.8281 210.391 19.4219C210.651 19.0156 210.781 18.5573 210.781 18.0469ZM233.922 20.3438V24H221.812V20.3438H233.922ZM223.344 1.25V24H218.656V1.25H223.344ZM232.344 10.5156V14.0781H221.812V10.5156H232.344ZM233.906 1.25V4.92188H221.812V1.25H233.906Z" fill="#00A99D"/>
</svg>
