<?xml version="1.0" encoding="UTF-8"?>
<svg width="105px" height="39px" viewBox="0 0 105 39" version="1.1" xmlns="http://www.w3.org/2000/svg" xmlns:xlink="http://www.w3.org/1999/xlink">
    <!-- Generator: Sketch 54.1 (76490) - https://sketchapp.com -->
    <title>BG s</title>
    <desc>Created with Sketch.</desc>
    <defs>
        <polygon id="path-1" points="9.48081264e-05 0.0193745789 104.998104 0.0193745789 104.998104 38.9402757 9.48081264e-05 38.9402757"></polygon>
    </defs>
    <g id="Page-1" stroke="none" stroke-width="1" fill="none" fill-rule="evenodd">
        <g id="START-PAGE" transform="translate(-1501.000000, -1484.000000)">
            <g id="BG-s" transform="translate(1501.000000, 1484.000000)">
                <g id="Group-11" transform="translate(0.000000, 0.019590)">
                    <mask id="mask-2" fill="white">
                        <use xlink:href="#path-1"></use>
                    </mask>
                    <g id="Clip-10"></g>
                    <path d="M19.3075327,0.0193745789 L104.998199,0.0193745789 L104.998199,19.4797176 C104.998199,30.2274726 96.3538307,38.9402995 85.6907607,38.9402995 L9.48081264e-05,38.9402995 L9.48081264e-05,19.4797176 C9.48081264e-05,8.73220153 8.64422573,0.0193745789 19.3075327,0.0193745789" id="Fill-9" fill="#FE6658" mask="url(#mask-2)"></path>
                </g>
                <path d="M27.5796366,19.5011706 L27.5796366,33.40046 L33.0955734,33.40046 L33.0955734,19.5011706 C33.0955734,11.8249194 26.9216682,5.60212006 19.3057314,5.60212006 C11.6897946,5.60212006 5.51588939,11.8249194 5.51588939,19.5011706 L5.51588939,33.40046 L11.0318262,33.40046 L11.0318262,19.5011706 C11.0318262,14.8957066 14.7362167,11.1619792 19.3057314,11.1619792 C23.875246,11.1619792 27.5796366,14.8957066 27.5796366,19.5011706" id="Fill-12" fill="#FFFFFF"></path>
                <path d="M91.2084752,19.4976588 C91.2084752,14.8919559 94.9128657,11.1582285 99.4821433,11.1582285 L99.4821433,5.59836937 C91.8664436,5.59836937 85.6925384,11.8214077 85.6925384,19.4976588 L85.6925384,33.3967093 L91.2084752,33.3967093 L91.2084752,19.4976588 Z" id="Fill-14" fill="#FFFFFF"></path>
                <path d="M61.3441524,19.5543492 C60.0346151,20.8742573 58.7248409,22.1944043 57.4150666,23.5145513 C56.9633059,23.9698897 56.5113081,24.4254671 56.0593104,24.8810444 C55.7262968,25.2164564 55.4027641,25.5604686 55.0448634,25.8710352 C54.4743555,26.3667473 53.8652133,26.7661838 53.184491,27.0913231 C49.7050327,28.7521378 45.5486445,27.7745697 43.1578205,24.732928 C40.7658115,21.6896141 40.7738702,17.3853997 43.1772562,14.3514028 C45.578272,11.3197948 49.7360824,10.3572772 53.2089041,12.0290812 C53.6343555,12.2338162 54.0351569,12.4710413 54.4200779,12.7452956 C55.7324594,11.424193 57.0448409,10.1030904 58.3572223,8.78222665 C58.0002698,8.48886064 57.6309921,8.21508423 57.2467822,7.95922511 C52.8038363,4.99928637 47.0667596,4.88270444 42.5090959,7.65988668 C37.9514323,10.4370689 35.3878205,15.6111087 35.9232494,20.9518989 C36.4586783,26.2924502 39.9973916,30.844879 45.0139266,32.6468821 C50.0306986,34.4488851 55.6281704,33.177951 59.3939492,29.3823492 C60.6940056,28.0719969 61.9942991,26.7616447 63.2943555,25.4512925 C64.9193668,23.813173 66.5446151,22.1752925 68.1698634,20.5369342 C68.3729898,20.332438 68.5761163,20.127464 68.7792427,19.9229678 C68.8806874,19.8204809 68.9823691,19.7182328 69.0838138,19.6157458 C69.1060937,19.5932894 69.1703262,19.5799112 69.1295587,19.5390597 C69.1041975,19.5132588 69.0788363,19.4879357 69.0534752,19.4621348 C69.0027528,19.4107718 68.9520305,19.3598867 68.9010711,19.3087626 C68.4948183,18.8990536 68.0885655,18.4895835 67.6823126,18.0801133 C66.86957,17.2609342 66.0570643,16.4422328 65.2445587,15.6230536 C64.9193668,15.2955253 64.594412,14.9679969 64.2694571,14.6402297 C62.9694007,15.9505819 61.6693442,17.2609342 60.3690508,18.5715253 C60.6940056,18.8990536 61.0191975,19.2268208 61.3441524,19.5543492" id="Fill-16" fill="#FFFFFF"></path>
                <path d="M60.4306761,30.3264239 C60.7876287,30.6197899 61.1569063,30.8933274 61.5413533,31.1494254 C65.9842991,34.1093642 71.7213758,34.2257072 76.2790395,31.448525 C80.8367032,28.6715816 83.4003149,23.4975418 82.864649,18.1567516 C82.3292201,12.8162003 78.7905068,8.26377152 73.7739718,6.46176845 C68.7574368,4.66000429 63.159728,5.93069954 59.3939492,9.72630138 L55.4935429,13.6575969 L50.618272,18.5714775 C50.4151456,18.7762126 50.2120192,18.9809476 50.0088928,19.1856827 C49.9072111,19.2881697 49.8055293,19.3906567 49.7040847,19.4926658 C49.6818047,19.5151222 49.6178093,19.5287394 49.6583397,19.5698297 C49.6837009,19.5951528 49.7092991,19.6207149 49.7346603,19.6465158 C49.7853826,19.6976398 49.836105,19.7487639 49.8868273,19.7998879 C50.2930801,20.209358 50.69957,20.6188282 51.1058228,21.0285372 C51.9183284,21.8474775 52.7308341,22.6666567 53.5435767,23.485358 C53.8685316,23.8131253 54.1937235,24.1406536 54.5186783,24.4684208 C55.8187348,23.1578297 57.1187912,21.8474775 58.4188476,20.5368864 C58.0938928,20.209358 57.7689379,19.8818297 57.443746,19.5543014 C58.7535203,18.2341544 60.0632946,16.9140074 61.3730688,15.5940992 C61.8248296,15.1385219 62.2768273,14.6831835 62.728588,14.2276061 C63.0616016,13.8919553 63.3853713,13.5484208 63.743272,13.2373764 C64.3135429,12.7419032 64.9229221,12.3424668 65.6034074,12.0173274 C69.0831027,10.3565127 73.239491,11.3340809 75.6300779,14.3754836 C78.0220869,17.4190364 78.0142652,21.7230119 75.6108792,24.7572478 C73.2098634,27.7888557 69.052053,28.7511345 65.5792314,27.0795694 C65.1537799,26.8748343 64.7527415,26.6378481 64.3678205,26.363355 C63.0554391,27.6842187 61.7430576,29.0055602 60.4306761,30.3264239" id="Fill-18" fill="#FFFFFF"></path>
            </g>
        </g>
    </g>
</svg>