<svg width="184" height="182" viewBox="0 0 184 182" fill="none" xmlns="http://www.w3.org/2000/svg">
<path d="M26.0879 79.4606C22.2611 80.1365 18.4884 80.1553 14.7697 79.517C11.117 78.8671 7.97466 77.4472 5.34267 75.2572C2.71069 73.0673 1.05646 70.0571 0.379984 66.2268C-0.218861 62.8361 0.107118 60.0589 1.35792 57.8955C2.59764 55.6693 4.33858 53.9697 6.58074 52.7967C8.82291 51.6237 11.0656 50.8391 13.3089 50.4429C11.5746 52.9507 10.3463 55.4339 9.62389 57.8926C8.96745 60.3395 8.82222 62.5991 9.18818 64.6712C9.56523 66.8061 10.4809 68.7164 11.9353 70.4021C13.4445 72.0133 15.4535 73.1802 17.9624 73.9026C20.4824 74.6878 23.4578 74.7774 26.8887 74.1715C29.8578 73.6471 32.6447 72.6693 35.2495 71.238C37.9202 69.7951 39.98 67.9744 41.4287 65.776C42.9434 63.566 43.4513 61.0481 42.9522 58.2225C42.4976 55.648 41.3177 53.5901 39.4126 52.0488C37.5624 50.4331 35.2891 49.1187 32.5928 48.1056C29.8854 47.0297 27.0627 46.0713 24.1247 45.2305C21.1756 44.3268 18.3418 43.3056 15.6234 42.167C12.9049 41.0283 10.5709 39.5627 8.62147 37.7702C6.73799 35.9661 5.54119 33.6198 5.03106 30.7314C4.57638 28.1569 4.75377 25.3089 5.56322 22.1874C6.42757 18.9915 7.886 15.8849 9.93852 12.8676C11.991 9.85035 14.6601 7.24219 17.9457 5.04315C21.2203 2.78131 25.0348 1.26586 29.3895 0.496795C33.942 -0.307232 37.3028 0.0381056 39.4718 1.53281C41.6408 3.02751 42.9859 5.25047 43.5072 8.20171C43.9175 10.525 43.9267 13.081 43.5347 15.8698C43.1427 18.6586 42.5307 21.3567 41.6985 23.9642C40.9323 26.56 40.138 28.8047 39.3158 30.6982C36.3129 30.6458 34.5786 29.3009 34.1128 26.6636C33.88 25.345 33.8833 23.8228 34.1228 22.097C34.4282 20.3595 34.7886 18.5476 35.2039 16.6612C35.6851 14.7632 36.0455 12.9513 36.285 11.2255C36.5794 9.42523 36.6157 7.89717 36.3939 6.64133C36.1942 5.51107 35.6761 4.69607 34.8394 4.19632C34.0687 3.68493 32.6277 3.61567 30.5164 3.98855C27.3494 4.54787 24.5628 5.71991 22.1565 7.50464C19.7502 9.28938 17.7349 11.3612 16.1104 13.7201C14.5518 16.0674 13.4444 18.4645 12.7879 20.9115C12.1204 23.2957 11.9474 25.3982 12.269 27.2192C12.6683 29.4797 13.7708 31.2923 15.5767 32.6569C17.3714 33.9586 19.5729 35.0591 22.181 35.9583C24.8551 36.8457 27.6282 37.7158 30.5002 38.5683C33.4382 39.4092 36.239 40.4362 38.9026 41.6493C41.6322 42.8507 43.9553 44.4477 45.8721 46.4402C47.7888 48.4327 49.0355 51.0616 49.6122 54.3268C50.1889 57.592 49.9072 60.6202 48.7673 63.4116C47.6934 66.1913 45.9866 68.6619 43.6468 70.8233C41.3182 73.0476 38.615 74.8848 35.5373 76.3349C32.5366 77.8361 29.3868 78.878 26.0879 79.4606Z" fill="#344152"/>
<path d="M69.849 68.7211C66.4181 69.327 63.398 68.792 60.7888 67.116C58.2566 65.4912 56.619 62.5753 55.876 58.3682C55.3326 55.2914 55.4271 52.1667 56.1595 48.994C56.8919 45.8214 58.1086 42.887 59.8096 40.1908C61.4995 37.4318 63.5091 35.1344 65.8383 33.2985C68.2335 31.451 70.7836 30.2883 73.4887 29.8106C76.2599 29.3212 78.3557 29.6309 79.7762 30.7398C81.2627 31.837 82.1612 33.2647 82.4717 35.0229C82.7822 36.7811 82.6253 38.5895 82.001 40.448C81.4316 42.2321 80.3882 43.2581 78.8707 43.5261C77.6171 43.7475 76.489 43.3316 75.4866 42.2784C76.0687 41.7223 76.6173 40.7837 77.1324 39.4624C77.6475 38.1412 77.7387 36.5387 77.406 34.6549C77.2175 33.5875 76.4964 33.1644 75.2428 33.3858C73.5933 33.6771 71.9724 34.708 70.3801 36.4785C68.8426 38.1746 67.4817 40.2927 66.2975 42.8329C65.1681 45.2986 64.3304 47.8747 63.7843 50.5612C63.2931 53.1732 63.2304 55.5153 63.5964 57.5875C63.9069 59.3456 64.6571 60.8967 65.847 62.2405C67.0917 63.51 69.0996 63.9 71.8707 63.4106C74.3779 62.9678 76.8621 61.8168 79.3233 59.9576C81.7845 58.0984 83.9864 55.7346 85.9292 52.8662C87.8608 49.9351 89.2474 46.6145 90.089 42.9046L92.3678 44.2504C91.4608 48.3604 89.8549 52.1729 87.5501 55.688C85.3002 59.1286 82.6095 61.9996 79.478 64.3009C76.4236 66.6534 73.2139 68.1268 69.849 68.7211Z" fill="#344152"/>
<path d="M97.0154 63.0491C94.8381 63.4336 92.8357 63.075 91.0082 61.9732C89.1148 60.8831 87.9241 58.9566 87.4361 56.1938C87.048 53.996 87.1544 51.5167 87.7554 48.7558C88.3564 45.9949 89.3588 43.1954 90.7626 40.3575C92.1664 37.5195 93.8785 34.8861 95.8989 32.4573C97.9082 29.9657 100.154 27.853 102.638 26.1194C105.121 24.3858 107.715 23.2802 110.421 22.8024C113.258 22.3014 115.788 22.5667 118.011 23.5986C120.235 24.6304 121.546 26.2766 121.945 28.5371C122.245 30.2325 121.834 31.5677 120.713 32.5426C119.593 33.5175 118.147 33.9995 116.376 33.9885C116.408 33.4 116.408 32.8174 116.374 32.2406C116.406 31.6522 116.367 31.044 116.256 30.4161C116.034 29.1603 115.57 28.0766 114.865 27.1652C114.16 26.2537 112.949 25.9494 111.234 26.2524C109.387 26.5787 107.612 27.5073 105.909 29.0383C104.206 30.5693 102.636 32.4653 101.198 34.7265C99.8156 36.9132 98.6366 39.2906 97.6613 41.8586C96.675 44.3639 95.98 46.7852 95.5764 49.1228C95.1728 51.4604 95.1263 53.5082 95.4368 55.2664C95.7917 57.2758 96.7278 58.1464 98.2454 57.8784C99.7629 57.6104 101.323 56.6226 102.927 54.9149C104.519 53.1444 106.05 51.0285 107.521 48.5673C109.057 46.0945 110.489 43.6077 111.816 41.107C113.133 38.5435 114.279 36.3662 115.255 34.575C115.398 34.226 115.634 34.0224 115.964 33.9642C116.239 33.9804 116.761 34.05 117.531 34.1729C118.357 34.2215 119.138 34.4073 119.875 34.7303C120.613 35.0533 121.042 35.5602 121.164 36.2509C121.308 37.0672 121.046 38.279 120.378 39.8864C119.698 41.4309 119.007 43.1069 118.306 44.9143C117.671 46.71 117.475 48.2986 117.719 49.68C117.863 50.4963 118.233 51.2404 118.827 51.9124C119.411 52.5215 120.231 52.7329 121.287 52.5464C122.87 52.2668 124.886 50.7776 127.335 48.0788C129.839 45.3055 132.104 40.9881 134.131 35.1264L136.327 36.5839C134.795 42.164 132.498 46.8757 129.435 50.7189C126.371 54.5622 122.992 56.8102 119.297 57.4627C116.592 57.9404 114.436 57.4796 112.828 56.08C111.22 54.6805 110.184 53.0505 109.719 51.19L109.636 50.7191C107.529 54.1992 105.509 57.0164 103.576 59.1708C101.71 61.3135 99.5226 62.6063 97.0154 63.0491Z" fill="#344152"/>
<path d="M168.352 47.828C165.778 48.2824 163.688 48.0041 162.081 46.9929C160.551 46.0329 159.619 44.611 159.286 42.7273C159.065 41.4714 159.063 40.112 159.281 38.649C159.487 37.1232 159.694 35.5974 159.901 34.0717C160.108 32.5459 160.095 31.1237 159.862 29.805C159.618 28.4236 159.089 27.5458 158.274 27.1716C157.514 26.723 156.673 26.5803 155.749 26.7434C153.77 27.093 151.863 28.2392 150.029 30.1818C148.25 32.0501 146.576 34.3206 145.007 36.9935C143.503 39.6548 142.116 42.3927 140.844 45.2074C139.572 48.022 138.487 50.5447 137.588 52.7755C136.335 52.9969 135.108 52.9868 133.909 52.7454C132.721 52.5667 131.642 52.045 130.673 51.1801C130.683 50.8545 130.913 49.8427 131.361 48.1447C131.733 46.3956 132.153 44.3464 132.623 41.9972C133.082 39.5852 133.424 37.0965 133.652 34.5311C133.879 31.9657 133.815 29.6783 133.46 27.669C133.833 27.0851 134.438 26.4604 135.273 25.7949C136.174 25.1178 137.152 24.686 138.207 24.4995C140.517 24.0917 141.838 24.8297 142.17 26.7134C142.47 28.4088 142.403 31.3021 141.968 35.3933C143.296 32.8926 144.81 30.4884 146.512 28.1806C148.213 25.8728 150.047 23.9301 152.014 22.3525C154.036 20.7005 156.168 19.6764 158.411 19.2802C161.248 18.7792 163.487 19.3226 165.129 20.9105C166.836 22.4868 167.883 24.3738 168.272 26.5715C168.604 28.4553 168.585 30.2717 168.213 32.0208C167.842 33.77 167.454 35.4249 167.049 36.9856C166.71 38.5347 166.663 40 166.907 41.3814C167.084 42.3861 167.443 43.0674 167.982 43.4254C168.577 43.7089 169.171 43.7983 169.765 43.6934C171.348 43.4137 172.87 42.4003 174.33 40.6531C175.791 38.9059 177.086 36.7995 178.215 34.3337C179.399 31.7935 180.386 29.2883 181.174 26.8181L183.089 27.8396C182.247 31.1611 181.163 34.2664 179.836 37.1555C178.564 39.9701 176.978 42.3546 175.078 44.309C173.233 46.1889 170.991 47.3619 168.352 47.828Z" fill="#344152"/>
<path d="M62.049 181.027C58.3542 181.68 54.7899 181.338 51.3562 180.002C47.9336 178.729 44.988 176.497 42.5196 173.307C40.0401 170.054 38.3623 165.947 37.4862 160.987C36.6323 156.152 36.559 151.114 37.2664 145.874C37.9738 140.634 39.3194 135.54 41.3032 130.592C43.2758 125.582 45.7331 121.004 48.6749 116.858C51.6168 112.712 54.8896 109.285 58.4935 106.577C62.1522 103.794 65.994 102.047 70.0187 101.336C72.9218 100.824 75.3253 100.949 77.2293 101.714C79.1222 102.416 80.5812 103.55 81.6064 105.117C82.6976 106.673 83.415 108.424 83.7588 110.37C84.147 112.568 84.1062 114.842 83.6367 117.191C83.233 119.528 82.433 121.547 81.2365 123.248C80.106 124.937 78.6831 125.933 76.9676 126.236C76.1759 126.376 75.4113 126.284 74.6739 125.961C73.9364 125.638 73.1325 124.938 72.262 123.862C73.1408 123.059 74.0354 121.768 74.9457 119.988C75.9221 118.197 76.7058 116.278 77.2968 114.231C77.8767 112.122 78.0336 110.313 77.7675 108.806C77.5457 107.55 76.9338 106.59 75.9319 105.925C74.9849 105.186 73.5547 104.985 71.6413 105.323C68.6723 105.848 65.7928 107.457 63.0028 110.151C60.2678 112.771 57.7922 116.09 55.5761 120.107C53.349 124.062 51.4634 128.409 49.9193 133.15C48.4301 137.816 47.425 142.526 46.9038 147.28C46.3716 151.971 46.4604 156.326 47.1701 160.345C48.1793 166.059 50.2533 170.29 53.392 173.038C56.5857 175.711 59.9969 176.728 63.6258 176.087C66.3309 175.609 68.6609 174.356 70.6159 172.327C72.6368 170.287 74.2721 167.796 75.5218 164.856C76.8264 161.841 77.7293 158.671 78.2305 155.345C78.7316 152.019 78.848 148.826 78.5796 145.765C75.2358 145.708 71.6504 146.017 67.8237 146.693C66.768 146.88 65.7179 147.098 64.6733 147.347C63.6176 147.533 62.5015 147.763 61.325 148.035C61.6926 143.567 63.9547 140.966 68.1113 140.232C70.0907 139.883 72.1255 139.847 74.2158 140.125C76.3609 140.329 78.5172 140.596 80.6845 140.925C82.9178 141.243 85.063 141.447 87.12 141.537L86.646 144.632C86.0683 148.295 85.5887 151.358 85.2073 153.821C84.8808 156.21 84.6637 158.256 84.5562 159.958C84.4376 161.598 84.4287 163.089 84.5296 164.431C84.6195 165.71 84.7864 167.04 85.0303 168.422C85.2521 169.677 85.5125 170.959 85.8113 172.266C86.1213 173.636 86.4811 175.288 86.8909 177.223C84.8672 177.321 83.2828 177.018 82.1379 176.314C81.07 175.661 80.2713 174.798 79.7418 173.726C79.2783 172.643 78.9523 171.567 78.7637 170.5C78.7083 170.186 78.6528 169.872 78.5974 169.558C78.5419 169.244 78.5195 168.924 78.53 168.598C76.6976 171.706 74.4136 174.376 71.678 176.607C69.0194 178.89 65.8098 180.363 62.049 181.027Z" fill="#344152"/>
<path d="M102.004 168.629C99.0351 169.153 96.8234 168.573 95.3691 166.887C93.9918 165.252 93.1091 163.336 92.721 161.139C92.3661 159.129 92.3356 157.03 92.6294 154.842C92.9122 152.59 93.4536 150.455 94.2536 148.436C95.1196 146.405 96.1511 144.734 97.3482 143.421C98.6001 142.035 99.9518 141.213 101.403 140.957C101.865 140.875 102.41 140.876 103.037 140.96C103.719 140.969 104.219 141.107 104.539 141.375C103.705 142.817 102.905 144.642 102.138 146.849C101.426 148.982 100.896 151.18 100.547 153.443C100.264 155.695 100.278 157.7 100.589 159.458C100.81 160.714 101.224 161.709 101.83 162.444C102.502 163.167 103.465 163.418 104.719 163.196C105.972 162.975 107.34 162.053 108.823 160.432C110.36 158.736 111.766 156.869 113.039 154.831C110.606 153.383 108.739 151.673 107.438 149.701C106.126 147.666 105.199 145.111 104.655 142.034C104.422 140.715 104.486 139.15 104.846 137.338C105.273 135.514 106.134 133.841 107.43 132.317C108.791 130.781 110.792 129.781 113.431 129.314C116.268 128.813 118.38 129.217 119.768 130.526C121.222 131.824 122.132 133.508 122.498 135.58C122.908 137.904 122.709 140.626 121.899 143.748C121.156 146.857 120.12 149.857 118.794 152.746C119.652 152.983 120.609 153.008 121.665 152.822C122.654 152.647 123.803 152.217 125.111 151.533C126.419 150.849 127.644 149.888 128.786 148.65C129.917 147.35 130.723 145.75 131.205 143.852L133.202 144.762C132.316 148.221 130.786 150.919 128.611 152.858C126.491 154.721 124.276 155.857 121.967 156.265C121.109 156.416 120.24 156.505 119.36 156.531C118.469 156.494 117.639 156.414 116.868 156.291C115.069 159.199 112.884 161.851 110.313 164.248C107.743 166.644 104.973 168.105 102.004 168.629ZM115.079 151.362C116.275 148.885 117.212 146.291 117.89 143.582C118.568 140.872 118.718 138.449 118.341 136.314C117.853 133.552 116.685 132.333 114.838 132.66C113.584 132.881 112.448 133.956 111.427 135.884C110.407 137.813 110.125 140.064 110.579 142.639C110.812 143.957 111.326 145.518 112.12 147.32C112.981 149.111 113.967 150.458 115.079 151.362Z" fill="#344152"/>
<path d="M138.204 130.281C139.024 126.446 139.892 122.504 140.81 118.457C141.729 114.41 142.68 110.551 143.665 106.881C144.638 103.147 145.645 99.7968 146.686 96.8288C147.715 93.7979 148.784 91.3752 149.893 89.5607C151.067 87.7345 152.281 86.7108 153.535 86.4894C154.26 86.3612 154.937 86.5331 155.565 87.005C156.247 87.4024 156.661 88.0093 156.805 88.8256C156.96 89.7047 156.704 91.5305 156.037 94.3031C155.436 97.064 154.561 100.391 153.412 104.285C152.262 108.179 150.954 112.327 149.486 116.731C148.019 121.134 146.54 125.474 145.05 129.752C143.55 133.967 142.114 137.782 140.744 141.196C139.374 144.611 138.212 147.277 137.258 149.194C137.049 149.166 136.84 149.138 136.631 149.11C136.422 149.082 136.213 149.054 136.004 149.027C135.781 147.382 135.751 145.478 135.913 143.312C136.141 141.135 136.462 138.909 136.877 136.635C137.346 134.285 137.789 132.168 138.204 130.281ZM135.888 160.508C134.833 160.694 133.865 160.606 132.984 160.244C132.104 159.881 131.564 159.135 131.364 158.005C131.153 156.812 131.63 155.659 132.794 154.547C134.025 153.423 135.432 152.721 137.015 152.442C138.005 152.267 138.835 152.347 139.507 152.682C140.244 153.005 140.707 153.7 140.896 154.767C141.084 155.835 140.679 157.007 139.68 158.284C138.67 159.499 137.406 160.24 135.888 160.508Z" fill="#344152"/>
<path d="M109.727 113.074C107.616 113.447 105.68 113.368 103.919 112.837C102.197 112.332 100.774 111.499 99.6507 110.337C98.5601 109.17 97.8734 107.786 97.5906 106.185C97.2579 104.301 97.4834 102.4 98.2671 100.481C99.0452 98.5301 100.266 96.7766 101.931 95.2201C103.622 93.6263 105.661 92.4569 108.047 91.7117C106.714 90.911 105.627 89.9537 104.784 88.84C103.974 87.7204 103.458 86.5327 103.236 85.2769C102.937 83.5815 103.099 81.9016 103.724 80.2373C104.348 78.573 105.386 77.1271 106.836 75.8998C108.319 74.6666 110.133 73.8606 112.277 73.4819C114.256 73.1323 115.838 73.3225 117.021 74.0523C118.232 74.745 118.987 75.939 119.287 77.6344C119.498 78.8275 119.491 80.0427 119.267 81.2801C119.038 82.4861 118.677 83.5212 118.183 84.3854C117.684 85.2182 117.121 85.6899 116.494 85.8006C116.032 85.8822 115.553 85.7725 115.058 85.4715C114.59 85.1333 114.163 84.7392 113.778 84.2893C114.832 83.1318 115.663 81.9652 116.272 80.7893C116.914 79.6075 117.138 78.4672 116.944 77.3684C116.788 76.4893 116.4 75.8295 115.778 75.389C115.15 74.9171 114.259 74.7831 113.104 74.987C111.62 75.2492 110.438 75.8787 109.56 76.8756C108.681 77.8725 108.094 79.0769 107.799 80.4888C107.499 81.8692 107.485 83.3287 107.756 84.8671C107.884 85.5892 108.091 86.3781 108.378 87.2339C108.699 88.0839 109.203 88.9175 109.892 89.7348C110.575 90.5206 111.516 91.2285 112.716 91.8583C110.402 92.6232 108.479 93.7722 106.946 95.3055C105.409 96.8073 104.303 98.4433 103.629 100.213C102.955 101.984 102.757 103.654 103.034 105.223C103.2 106.165 103.57 107.104 104.143 108.038C104.75 108.967 105.592 109.693 106.671 110.214C107.749 110.736 109.064 110.86 110.615 110.586C112.396 110.272 114.026 109.579 115.504 108.509C116.981 107.438 118.264 106.127 119.35 104.576C120.465 102.987 121.304 101.285 121.867 99.4691C122.431 97.6536 122.673 95.8464 122.594 94.0474C121.972 94.1895 121.371 94.3444 120.788 94.5121C120.238 94.6739 119.595 94.8846 118.858 95.1442C118.155 95.398 117.212 95.7425 116.03 96.1779C115.78 94.5709 116.153 93.4043 117.147 92.6783C118.142 91.9523 119.397 91.4553 120.915 91.1873C121.971 91.0009 122.938 90.8947 123.818 90.8688C124.731 90.8371 125.63 90.824 126.516 90.8295C127.429 90.7977 128.43 90.6857 129.518 90.4935C129.173 91.6228 128.806 92.3352 128.416 92.6307C128.053 92.889 127.674 93.0531 127.278 93.123C126.684 93.2279 126.176 93.3339 125.752 93.441C125.357 93.5109 124.944 93.5838 124.515 93.6595C124.661 95.8352 124.379 97.9896 123.667 100.123C122.988 102.25 121.976 104.225 120.631 106.049C119.286 107.873 117.685 109.402 115.828 110.637C113.971 111.871 111.938 112.684 109.727 113.074Z" fill="#344152"/>
</svg>
