<svg width="1760" height="1743" viewBox="0 0 1760 1743" fill="none" xmlns="http://www.w3.org/2000/svg">
<mask id="path-1-outside-1_14_1033" maskUnits="userSpaceOnUse" x="-96.1587" y="-240.302" width="2074.32" height="2054.05" fill="black">
<rect fill="white" x="-96.1587" y="-240.302" width="2074.32" height="2054.05"/>
<path d="M251.406 763.713C214.673 770.201 178.459 770.381 142.763 764.254C107.701 758.016 77.5379 744.386 52.2736 723.365C27.0093 702.344 11.1304 673.45 4.637 636.683C-1.11129 604.135 2.01777 577.477 14.0242 556.711C25.9241 535.341 42.6353 519.027 64.1578 507.767C85.6803 496.508 107.208 488.977 128.741 485.174C112.094 509.246 100.303 533.082 93.3688 556.682C87.0677 580.171 85.6736 601.86 89.1865 621.75C92.8058 642.243 101.595 660.58 115.556 676.761C130.043 692.227 149.327 703.427 173.41 710.362C197.599 717.899 226.16 718.759 259.093 712.943C287.593 707.91 314.345 698.524 339.348 684.785C364.984 670.934 384.755 653.458 398.662 632.355C413.202 611.141 418.076 586.973 413.286 559.849C408.922 535.137 397.596 515.384 379.309 500.589C361.549 485.079 339.728 472.462 313.847 462.738C287.859 452.41 260.764 443.211 232.562 435.139C204.253 426.465 177.052 416.663 150.957 405.733C124.863 394.803 102.459 380.735 83.7466 363.529C65.6672 346.211 54.1792 323.689 49.2825 295.963C44.918 271.251 46.6208 243.914 54.3907 213.95C62.6875 183.273 76.6869 153.453 96.3889 124.49C116.091 95.5273 141.711 70.4917 173.25 49.3832C204.682 27.672 241.298 13.1252 283.098 5.74296C326.797 -1.97485 359.057 1.34003 379.878 15.6876C400.698 30.0351 413.61 51.3733 418.613 79.7021C422.551 102.003 422.639 126.539 418.877 153.308C415.115 180.077 409.239 205.976 401.251 231.005C393.896 255.923 386.273 277.469 378.38 295.645C349.556 295.142 332.908 282.232 328.437 256.917C326.202 244.26 326.233 229.648 328.532 213.082C331.465 196.404 334.924 179.012 338.91 160.905C343.529 142.686 346.988 125.293 349.287 108.727C352.113 91.4466 352.462 76.7788 350.333 64.724C348.416 53.8747 343.443 46.0516 335.412 41.2546C328.014 36.3457 314.182 35.6809 293.915 39.2602C263.515 44.6291 236.767 55.8794 213.669 73.011C190.571 90.1426 171.226 110.03 155.632 132.673C140.672 155.205 130.041 178.214 123.74 201.703C117.333 224.588 115.672 244.771 118.759 262.25C122.592 283.949 133.175 301.347 150.509 314.446C167.737 326.942 188.869 337.505 213.904 346.136C239.573 354.655 266.191 363.006 293.76 371.19C321.962 379.261 348.846 389.119 374.414 400.764C400.615 412.296 422.915 427.626 441.313 446.752C459.712 465.878 471.679 491.112 477.215 522.454C482.75 553.797 480.047 582.865 469.105 609.659C458.796 636.341 442.412 660.056 419.953 680.804C397.601 702.155 371.653 719.79 342.11 733.709C313.307 748.119 283.073 758.121 251.406 763.713Z"/>
<path d="M671.467 660.625C638.534 666.441 609.544 661.305 584.498 645.218C560.192 629.621 544.473 601.631 537.341 561.248C532.125 531.714 533.032 501.72 540.062 471.266C547.092 440.812 558.771 412.644 575.099 386.764C591.32 360.28 610.61 338.228 632.968 320.605C655.959 302.871 680.438 291.711 706.405 287.125C733.005 282.427 753.122 285.4 766.757 296.044C781.026 306.577 789.651 320.281 792.631 337.158C795.612 354.034 794.106 371.393 788.114 389.233C782.648 406.358 772.632 416.207 758.065 418.779C746.032 420.905 735.204 416.912 725.582 406.802C731.17 401.465 736.436 392.455 741.38 379.772C746.324 367.09 747.199 351.708 744.006 333.625C742.196 323.379 735.275 319.318 723.242 321.443C707.408 324.24 691.849 334.135 676.564 351.13C661.806 367.41 648.744 387.742 637.376 412.125C626.535 435.794 618.494 460.522 613.252 486.309C608.537 511.382 607.935 533.863 611.448 553.754C614.429 570.63 621.63 585.519 633.051 598.418C645 610.604 664.274 614.347 690.873 609.649C714.94 605.399 738.786 594.351 762.41 576.505C786.035 558.658 807.171 535.968 825.82 508.435C844.361 480.299 857.672 448.425 865.75 412.814L887.624 425.732C878.918 465.183 863.503 501.78 841.379 535.521C819.782 568.547 793.955 596.106 763.896 618.196C734.576 640.777 703.767 654.92 671.467 660.625Z"/>
<path d="M932.236 606.179C911.336 609.871 892.115 606.428 874.573 595.852C856.398 585.388 844.969 566.896 840.285 540.376C836.559 519.28 837.581 495.481 843.349 468.979C849.118 442.477 858.74 415.605 872.216 388.364C885.691 361.122 902.125 335.845 921.519 312.53C940.806 288.613 962.368 268.334 986.205 251.694C1010.04 235.053 1034.94 224.44 1060.91 219.854C1088.14 215.044 1112.43 217.591 1133.77 227.496C1155.12 237.401 1167.7 253.202 1171.53 274.901C1174.41 291.175 1170.47 303.991 1159.71 313.349C1148.96 322.707 1135.08 327.333 1118.08 327.228C1118.39 321.58 1118.38 315.987 1118.06 310.451C1118.36 304.802 1117.99 298.964 1116.92 292.937C1114.79 280.882 1110.34 270.48 1103.57 261.731C1096.8 252.982 1085.19 250.062 1068.72 252.97C1050.99 256.102 1033.95 265.016 1017.6 279.711C1001.26 294.407 986.188 312.608 972.388 334.312C959.115 355.303 947.797 378.123 938.436 402.773C928.968 426.821 922.297 450.064 918.423 472.502C914.549 494.94 914.102 514.597 917.083 531.474C920.489 550.762 929.476 559.119 944.042 556.547C958.609 553.974 973.588 544.492 988.979 528.099C1004.26 511.105 1018.96 490.795 1033.08 467.17C1047.82 443.433 1061.57 419.562 1074.31 395.558C1086.94 370.952 1097.95 350.051 1107.32 332.858C1108.69 329.508 1110.95 327.554 1114.12 326.995C1116.76 327.15 1121.78 327.818 1129.17 328.999C1137.09 329.465 1144.59 331.248 1151.67 334.349C1158.74 337.449 1162.87 342.315 1164.04 348.945C1165.42 356.781 1162.91 368.413 1156.49 383.842C1149.96 398.668 1143.33 414.755 1136.6 432.104C1130.5 449.342 1128.63 464.59 1130.97 477.851C1132.35 485.686 1135.9 492.829 1141.61 499.279C1147.21 505.126 1155.08 507.155 1165.22 505.365C1180.41 502.681 1199.77 488.386 1223.28 462.48C1247.31 435.86 1269.05 394.417 1288.5 338.151L1309.59 352.141C1294.88 405.704 1272.83 450.932 1243.43 487.823C1214.02 524.715 1181.59 546.292 1146.12 552.556C1120.15 557.142 1099.45 552.718 1084.02 539.284C1068.58 525.85 1058.64 510.203 1054.18 492.345L1053.38 487.824C1033.16 521.23 1013.77 548.272 995.215 568.952C977.295 589.52 956.302 601.929 932.236 606.179Z"/>
<path d="M1616.99 460.073C1592.29 464.435 1572.23 461.763 1556.8 452.057C1542.11 442.842 1533.17 429.194 1529.97 411.111C1527.84 399.057 1527.82 386.008 1529.92 371.965C1531.9 357.319 1533.89 342.673 1535.87 328.027C1537.86 313.381 1537.73 299.729 1535.49 287.071C1533.15 273.811 1528.07 265.385 1520.25 261.794C1512.96 257.488 1504.88 256.117 1496.02 257.683C1477.02 261.039 1458.72 272.041 1441.11 290.688C1424.03 308.622 1407.96 330.417 1392.9 356.073C1378.47 381.619 1365.15 407.9 1352.95 434.918C1340.74 461.935 1330.32 486.151 1321.69 507.564C1309.66 509.689 1297.89 509.592 1286.38 507.275C1274.97 505.56 1264.62 500.552 1255.31 492.25C1255.41 489.124 1257.62 479.412 1261.92 463.113C1265.49 446.324 1269.52 426.654 1274.03 404.104C1278.43 380.951 1281.72 357.062 1283.91 332.437C1286.09 307.811 1285.48 285.855 1282.07 266.567C1285.65 260.962 1291.45 254.966 1299.46 248.578C1308.11 242.079 1317.5 237.934 1327.64 236.144C1349.8 232.229 1362.48 239.313 1365.68 257.395C1368.55 273.669 1367.9 301.442 1363.74 340.713C1376.48 316.709 1391.02 293.631 1407.35 271.479C1423.68 249.326 1441.29 230.678 1460.17 215.535C1479.57 199.678 1500.04 189.847 1521.57 186.044C1548.8 181.235 1570.3 186.451 1586.05 201.693C1602.44 216.824 1612.49 234.937 1616.22 256.033C1619.41 274.115 1619.23 291.551 1615.66 308.341C1612.1 325.131 1608.37 341.016 1604.49 355.998C1601.23 370.867 1600.78 384.932 1603.12 398.193C1604.82 407.836 1608.27 414.376 1613.44 417.813C1619.15 420.534 1624.85 421.392 1630.55 420.385C1645.75 417.701 1660.36 407.973 1674.38 391.202C1688.4 374.43 1700.83 354.211 1711.67 330.542C1723.04 306.159 1732.5 282.112 1740.07 258.4L1758.46 268.205C1750.37 300.088 1739.96 329.896 1727.23 357.628C1715.02 384.646 1699.8 407.534 1681.56 426.294C1663.84 444.339 1642.32 455.599 1616.99 460.073Z"/>
<path d="M596.595 1738.65C561.128 1744.91 526.915 1741.63 493.955 1728.81C461.102 1716.58 432.828 1695.16 409.133 1664.54C385.332 1633.32 369.227 1593.9 360.818 1546.28C352.621 1499.87 351.918 1451.51 358.708 1401.21C365.499 1350.91 378.415 1302.01 397.457 1254.52C416.392 1206.43 439.979 1162.48 468.218 1122.69C496.456 1082.9 527.872 1050 562.466 1024C597.586 997.287 634.463 980.519 673.096 973.696C700.962 968.775 724.034 969.983 742.31 977.322C760.48 984.057 774.485 994.947 784.326 1009.99C794.8 1024.92 801.687 1041.73 804.987 1060.42C808.712 1081.51 808.322 1103.33 803.814 1125.88C799.94 1148.32 792.26 1167.7 780.775 1184.03C769.924 1200.24 756.265 1209.8 739.798 1212.71C732.198 1214.05 724.859 1213.17 717.78 1210.07C710.702 1206.97 702.985 1200.25 694.629 1189.92C703.064 1182.21 711.652 1169.82 720.39 1152.74C729.762 1135.54 737.285 1117.12 742.958 1097.47C748.525 1077.22 750.031 1059.87 747.476 1045.4C745.347 1033.35 739.474 1024.13 729.857 1017.75C720.766 1010.65 707.038 1008.72 688.671 1011.97C660.172 1017 632.531 1032.45 605.751 1058.31C579.497 1083.46 555.734 1115.31 534.462 1153.88C513.084 1191.84 494.984 1233.57 480.163 1279.07C465.868 1323.86 456.22 1369.07 451.217 1414.71C446.109 1459.74 446.961 1501.54 453.774 1540.12C463.46 1594.97 483.368 1635.58 513.497 1661.96C544.153 1687.62 576.897 1697.38 611.73 1691.22C637.697 1686.64 660.063 1674.61 678.828 1655.13C698.227 1635.55 713.924 1611.64 725.92 1583.42C738.443 1554.48 747.109 1524.05 751.92 1492.12C756.731 1460.2 757.848 1429.54 755.272 1400.17C723.174 1399.62 688.759 1402.59 652.026 1409.08C641.892 1410.87 631.812 1412.96 621.786 1415.35C611.652 1417.14 600.939 1419.34 589.646 1421.96C593.174 1379.07 614.887 1354.1 654.787 1347.06C673.787 1343.7 693.319 1343.36 713.383 1346.03C733.975 1347.99 754.672 1350.55 775.477 1353.71C796.914 1356.76 817.505 1358.72 837.25 1359.58L832.7 1389.29C827.155 1424.45 822.552 1453.86 818.891 1477.5C815.756 1500.43 813.673 1520.06 812.641 1536.41C811.502 1552.15 811.417 1566.46 812.386 1579.34C813.248 1591.62 814.85 1604.38 817.192 1617.64C819.321 1629.7 821.82 1642 824.689 1654.55C827.664 1667.69 831.118 1683.55 835.051 1702.13C815.626 1703.07 800.418 1700.16 789.427 1693.4C779.177 1687.13 771.51 1678.85 766.428 1668.56C761.978 1658.16 758.849 1647.84 757.039 1637.59C756.507 1634.58 755.975 1631.56 755.442 1628.55C754.91 1625.54 754.695 1622.47 754.796 1619.34C737.206 1649.17 715.282 1674.8 689.023 1696.22C663.504 1718.13 632.695 1732.27 596.595 1738.65Z"/>
<path d="M980.123 1619.64C951.623 1624.67 930.393 1619.1 916.433 1602.92C903.213 1587.23 894.74 1568.83 891.014 1547.74C887.608 1528.45 887.315 1508.3 890.135 1487.29C892.849 1465.68 898.046 1445.18 905.726 1425.8C914.038 1406.31 923.94 1390.27 935.43 1377.67C947.447 1364.36 960.423 1356.47 974.356 1354.01C978.789 1353.23 984.015 1353.24 990.035 1354.04C996.581 1354.13 1001.39 1355.46 1004.45 1358.02C996.448 1371.87 988.766 1389.38 981.406 1410.57C974.572 1431.05 969.482 1452.15 966.135 1473.87C963.421 1495.48 963.554 1514.73 966.535 1531.6C968.664 1543.66 972.637 1553.21 978.454 1560.26C984.904 1567.2 994.146 1569.61 1006.18 1567.49C1018.21 1565.36 1031.34 1556.52 1045.58 1540.95C1060.33 1524.67 1073.82 1506.75 1086.04 1487.19C1062.69 1473.29 1044.77 1456.87 1032.28 1437.95C1019.69 1418.42 1010.79 1393.88 1005.57 1364.35C1003.33 1351.69 1003.95 1336.67 1007.41 1319.28C1011.5 1301.77 1019.76 1285.71 1032.2 1271.08C1045.27 1256.34 1064.47 1246.73 1089.81 1242.26C1117.04 1237.45 1137.32 1241.33 1150.64 1253.89C1164.59 1266.34 1173.33 1282.51 1176.84 1302.4C1180.78 1324.71 1178.86 1350.84 1171.09 1380.8C1163.96 1410.65 1154.02 1439.44 1141.29 1467.18C1149.52 1469.45 1158.71 1469.69 1168.84 1467.9C1178.34 1466.23 1189.37 1462.1 1201.93 1455.53C1214.48 1448.97 1226.24 1439.74 1237.2 1427.86C1248.06 1415.38 1255.8 1400.03 1260.42 1381.81L1279.59 1390.54C1271.09 1423.74 1256.4 1449.64 1235.52 1468.25C1215.17 1486.14 1193.91 1497.04 1171.74 1500.95C1163.51 1502.41 1155.17 1503.26 1146.72 1503.51C1138.17 1503.15 1130.2 1502.39 1122.8 1501.21C1105.53 1529.12 1084.56 1554.58 1059.88 1577.58C1035.21 1600.58 1008.62 1614.6 980.123 1619.64ZM1105.63 1453.89C1117.11 1430.11 1126.1 1405.22 1132.61 1379.21C1139.11 1353.2 1140.56 1329.94 1136.94 1309.45C1132.26 1282.93 1121.05 1271.24 1103.31 1274.37C1091.28 1276.49 1080.37 1286.81 1070.58 1305.32C1060.78 1323.83 1058.07 1345.44 1062.43 1370.16C1064.67 1382.81 1069.6 1397.79 1077.23 1415.09C1085.49 1432.28 1094.96 1445.21 1105.63 1453.89Z"/>
<path d="M1327.6 1251.54C1335.47 1214.72 1343.81 1176.89 1352.62 1138.04C1361.44 1099.19 1370.57 1062.15 1380.02 1026.92C1389.36 991.082 1399.03 958.92 1409.02 930.429C1418.9 901.336 1429.16 878.081 1439.8 860.663C1451.07 843.134 1462.73 833.307 1474.76 831.182C1481.73 829.951 1488.22 831.601 1494.25 836.131C1500.8 839.946 1504.77 845.772 1506.15 853.607C1507.64 862.046 1505.19 879.572 1498.78 906.185C1493.01 932.687 1484.61 964.626 1473.58 1002C1462.55 1039.38 1449.99 1079.2 1435.9 1121.47C1421.82 1163.73 1407.62 1205.4 1393.32 1246.46C1378.92 1286.92 1365.14 1323.53 1351.99 1356.31C1338.84 1389.09 1327.68 1414.68 1318.52 1433.08C1316.52 1432.81 1314.51 1432.54 1312.5 1432.28C1310.5 1432.01 1308.49 1431.74 1306.48 1431.47C1304.35 1415.69 1304.06 1397.41 1305.61 1376.62C1307.8 1355.72 1310.88 1334.36 1314.86 1312.52C1319.37 1289.97 1323.62 1269.64 1327.6 1251.54ZM1305.37 1541.68C1295.24 1543.47 1285.95 1542.63 1277.5 1539.15C1269.05 1535.67 1263.86 1528.5 1261.95 1517.65C1259.92 1506.2 1264.5 1495.14 1275.68 1484.46C1287.49 1473.68 1300.99 1466.94 1316.19 1464.26C1325.69 1462.58 1333.66 1463.34 1340.11 1466.56C1347.19 1469.66 1351.63 1476.33 1353.44 1486.58C1355.25 1496.82 1351.36 1508.08 1341.77 1520.34C1332.07 1531.99 1319.94 1539.11 1305.37 1541.68Z"/>
<path d="M1054.26 1086.37C1033.99 1089.95 1015.41 1089.19 998.506 1084.09C981.975 1079.24 968.317 1071.24 957.532 1060.1C947.063 1048.89 940.472 1035.61 937.757 1020.24C934.564 1002.15 936.728 983.903 944.251 965.482C951.72 946.76 963.442 929.928 979.416 914.987C995.653 899.689 1015.22 888.463 1038.12 881.311C1025.34 873.625 1014.9 864.436 1006.81 853.745C999.03 842.999 994.077 831.598 991.948 819.543C989.074 803.269 990.635 787.144 996.63 771.168C1002.62 755.193 1012.58 741.314 1026.5 729.533C1040.74 717.695 1058.15 709.959 1078.73 706.324C1097.73 702.968 1112.91 704.793 1124.27 711.799C1135.9 718.448 1143.14 729.909 1146.02 746.183C1148.04 757.635 1147.98 769.3 1145.83 781.178C1143.63 792.754 1140.16 802.69 1135.42 810.986C1130.63 818.98 1125.22 823.508 1119.21 824.571C1114.77 825.354 1110.18 824.301 1105.42 821.411C1100.93 818.164 1096.84 814.382 1093.13 810.063C1103.25 798.953 1111.24 787.754 1117.08 776.467C1123.24 765.123 1125.39 754.178 1123.53 743.63C1122.04 735.191 1118.3 728.858 1112.33 724.63C1106.31 720.1 1097.75 718.813 1086.67 720.771C1072.42 723.288 1061.08 729.33 1052.65 738.9C1044.21 748.469 1038.58 760.03 1035.75 773.582C1032.87 786.833 1032.73 800.842 1035.34 815.609C1036.56 822.541 1038.55 830.114 1041.31 838.329C1044.38 846.487 1049.22 854.489 1055.83 862.334C1062.39 869.878 1071.43 876.672 1082.95 882.718C1060.73 890.06 1042.27 901.09 1027.56 915.807C1012.8 930.223 1002.19 945.927 995.718 962.919C989.249 979.911 987.345 995.941 990.007 1011.01C991.603 1020.05 995.154 1029.06 1000.66 1038.03C1006.48 1046.95 1014.56 1053.91 1024.92 1058.92C1035.27 1063.93 1047.89 1065.12 1062.77 1062.49C1079.87 1059.47 1095.52 1052.82 1109.7 1042.55C1123.89 1032.27 1136.2 1019.69 1146.63 1004.79C1157.32 989.54 1165.38 973.2 1170.79 955.774C1176.2 938.347 1178.53 921 1177.76 903.731C1171.8 905.095 1166.02 906.582 1160.43 908.191C1155.15 909.745 1148.98 911.768 1141.91 914.259C1135.15 916.695 1126.1 920.002 1114.76 924.181C1112.36 908.756 1115.93 897.558 1125.48 890.589C1135.02 883.621 1147.08 878.85 1161.65 876.277C1171.78 874.488 1181.07 873.469 1189.52 873.22C1198.28 872.915 1206.91 872.789 1215.41 872.842C1224.17 872.538 1233.78 871.463 1244.23 869.617C1240.92 880.457 1237.39 887.295 1233.65 890.132C1230.17 892.611 1226.53 894.187 1222.73 894.858C1217.03 895.864 1212.14 896.882 1208.08 897.91C1204.28 898.581 1200.32 899.28 1196.21 900.008C1197.61 920.892 1194.89 941.572 1188.06 962.046C1181.54 982.465 1171.83 1001.43 1158.92 1018.94C1146.01 1036.44 1130.65 1051.12 1112.82 1062.97C1094.99 1074.82 1075.47 1082.62 1054.26 1086.37Z"/>
</mask>
<path d="M251.406 763.713C214.673 770.201 178.459 770.381 142.763 764.254C107.701 758.016 77.5379 744.386 52.2736 723.365C27.0093 702.344 11.1304 673.45 4.637 636.683C-1.11129 604.135 2.01777 577.477 14.0242 556.711C25.9241 535.341 42.6353 519.027 64.1578 507.767C85.6803 496.508 107.208 488.977 128.741 485.174C112.094 509.246 100.303 533.082 93.3688 556.682C87.0677 580.171 85.6736 601.86 89.1865 621.75C92.8058 642.243 101.595 660.58 115.556 676.761C130.043 692.227 149.327 703.427 173.41 710.362C197.599 717.899 226.16 718.759 259.093 712.943C287.593 707.91 314.345 698.524 339.348 684.785C364.984 670.934 384.755 653.458 398.662 632.355C413.202 611.141 418.076 586.973 413.286 559.849C408.922 535.137 397.596 515.384 379.309 500.589C361.549 485.079 339.728 472.462 313.847 462.738C287.859 452.41 260.764 443.211 232.562 435.139C204.253 426.465 177.052 416.663 150.957 405.733C124.863 394.803 102.459 380.735 83.7466 363.529C65.6672 346.211 54.1792 323.689 49.2825 295.963C44.918 271.251 46.6208 243.914 54.3907 213.95C62.6875 183.273 76.6869 153.453 96.3889 124.49C116.091 95.5273 141.711 70.4917 173.25 49.3832C204.682 27.672 241.298 13.1252 283.098 5.74296C326.797 -1.97485 359.057 1.34003 379.878 15.6876C400.698 30.0351 413.61 51.3733 418.613 79.7021C422.551 102.003 422.639 126.539 418.877 153.308C415.115 180.077 409.239 205.976 401.251 231.005C393.896 255.923 386.273 277.469 378.38 295.645C349.556 295.142 332.908 282.232 328.437 256.917C326.202 244.26 326.233 229.648 328.532 213.082C331.465 196.404 334.924 179.012 338.91 160.905C343.529 142.686 346.988 125.293 349.287 108.727C352.113 91.4466 352.462 76.7788 350.333 64.724C348.416 53.8747 343.443 46.0516 335.412 41.2546C328.014 36.3457 314.182 35.6809 293.915 39.2602C263.515 44.6291 236.767 55.8794 213.669 73.011C190.571 90.1426 171.226 110.03 155.632 132.673C140.672 155.205 130.041 178.214 123.74 201.703C117.333 224.588 115.672 244.771 118.759 262.25C122.592 283.949 133.175 301.347 150.509 314.446C167.737 326.942 188.869 337.505 213.904 346.136C239.573 354.655 266.191 363.006 293.76 371.19C321.962 379.261 348.846 389.119 374.414 400.764C400.615 412.296 422.915 427.626 441.313 446.752C459.712 465.878 471.679 491.112 477.215 522.454C482.75 553.797 480.047 582.865 469.105 609.659C458.796 636.341 442.412 660.056 419.953 680.804C397.601 702.155 371.653 719.79 342.11 733.709C313.307 748.119 283.073 758.121 251.406 763.713Z" fill="#344152"/>
<path d="M671.467 660.625C638.534 666.441 609.544 661.305 584.498 645.218C560.192 629.621 544.473 601.631 537.341 561.248C532.125 531.714 533.032 501.72 540.062 471.266C547.092 440.812 558.771 412.644 575.099 386.764C591.32 360.28 610.61 338.228 632.968 320.605C655.959 302.871 680.438 291.711 706.405 287.125C733.005 282.427 753.122 285.4 766.757 296.044C781.026 306.577 789.651 320.281 792.631 337.158C795.612 354.034 794.106 371.393 788.114 389.233C782.648 406.358 772.632 416.207 758.065 418.779C746.032 420.905 735.204 416.912 725.582 406.802C731.17 401.465 736.436 392.455 741.38 379.772C746.324 367.09 747.199 351.708 744.006 333.625C742.196 323.379 735.275 319.318 723.242 321.443C707.408 324.24 691.849 334.135 676.564 351.13C661.806 367.41 648.744 387.742 637.376 412.125C626.535 435.794 618.494 460.522 613.252 486.309C608.537 511.382 607.935 533.863 611.448 553.754C614.429 570.63 621.63 585.519 633.051 598.418C645 610.604 664.274 614.347 690.873 609.649C714.94 605.399 738.786 594.351 762.41 576.505C786.035 558.658 807.171 535.968 825.82 508.435C844.361 480.299 857.672 448.425 865.75 412.814L887.624 425.732C878.918 465.183 863.503 501.78 841.379 535.521C819.782 568.547 793.955 596.106 763.896 618.196C734.576 640.777 703.767 654.92 671.467 660.625Z" fill="#344152"/>
<path d="M932.236 606.179C911.336 609.871 892.115 606.428 874.573 595.852C856.398 585.388 844.969 566.896 840.285 540.376C836.559 519.28 837.581 495.481 843.349 468.979C849.118 442.477 858.74 415.605 872.216 388.364C885.691 361.122 902.125 335.845 921.519 312.53C940.806 288.613 962.368 268.334 986.205 251.694C1010.04 235.053 1034.94 224.44 1060.91 219.854C1088.14 215.044 1112.43 217.591 1133.77 227.496C1155.12 237.401 1167.7 253.202 1171.53 274.901C1174.41 291.175 1170.47 303.991 1159.71 313.349C1148.96 322.707 1135.08 327.333 1118.08 327.228C1118.39 321.58 1118.38 315.987 1118.06 310.451C1118.36 304.802 1117.99 298.964 1116.92 292.937C1114.79 280.882 1110.34 270.48 1103.57 261.731C1096.8 252.982 1085.19 250.062 1068.72 252.97C1050.99 256.102 1033.95 265.016 1017.6 279.711C1001.26 294.407 986.188 312.608 972.388 334.312C959.115 355.303 947.797 378.123 938.436 402.773C928.968 426.821 922.297 450.064 918.423 472.502C914.549 494.94 914.102 514.597 917.083 531.474C920.489 550.762 929.476 559.119 944.042 556.547C958.609 553.974 973.588 544.492 988.979 528.099C1004.26 511.105 1018.96 490.795 1033.08 467.17C1047.82 443.433 1061.57 419.562 1074.31 395.558C1086.94 370.952 1097.95 350.051 1107.32 332.858C1108.69 329.508 1110.95 327.554 1114.12 326.995C1116.76 327.15 1121.78 327.818 1129.17 328.999C1137.09 329.465 1144.59 331.248 1151.67 334.349C1158.74 337.449 1162.87 342.315 1164.04 348.945C1165.42 356.781 1162.91 368.413 1156.49 383.842C1149.96 398.668 1143.33 414.755 1136.6 432.104C1130.5 449.342 1128.63 464.59 1130.97 477.851C1132.35 485.686 1135.9 492.829 1141.61 499.279C1147.21 505.126 1155.08 507.155 1165.22 505.365C1180.41 502.681 1199.77 488.386 1223.28 462.48C1247.31 435.86 1269.05 394.417 1288.5 338.151L1309.59 352.141C1294.88 405.704 1272.83 450.932 1243.43 487.823C1214.02 524.715 1181.59 546.292 1146.12 552.556C1120.15 557.142 1099.45 552.718 1084.02 539.284C1068.58 525.85 1058.64 510.203 1054.18 492.345L1053.38 487.824C1033.16 521.23 1013.77 548.272 995.215 568.952C977.295 589.52 956.302 601.929 932.236 606.179Z" fill="#344152"/>
<path d="M1616.99 460.073C1592.29 464.435 1572.23 461.763 1556.8 452.057C1542.11 442.842 1533.17 429.194 1529.97 411.111C1527.84 399.057 1527.82 386.008 1529.92 371.965C1531.9 357.319 1533.89 342.673 1535.87 328.027C1537.86 313.381 1537.73 299.729 1535.49 287.071C1533.15 273.811 1528.07 265.385 1520.25 261.794C1512.96 257.488 1504.88 256.117 1496.02 257.683C1477.02 261.039 1458.72 272.041 1441.11 290.688C1424.03 308.622 1407.96 330.417 1392.9 356.073C1378.47 381.619 1365.15 407.9 1352.95 434.918C1340.74 461.935 1330.32 486.151 1321.69 507.564C1309.66 509.689 1297.89 509.592 1286.38 507.275C1274.97 505.56 1264.62 500.552 1255.31 492.25C1255.41 489.124 1257.62 479.412 1261.92 463.113C1265.49 446.324 1269.52 426.654 1274.03 404.104C1278.43 380.951 1281.72 357.062 1283.91 332.437C1286.09 307.811 1285.48 285.855 1282.07 266.567C1285.65 260.962 1291.45 254.966 1299.46 248.578C1308.11 242.079 1317.5 237.934 1327.64 236.144C1349.8 232.229 1362.48 239.313 1365.68 257.395C1368.55 273.669 1367.9 301.442 1363.74 340.713C1376.48 316.709 1391.02 293.631 1407.35 271.479C1423.68 249.326 1441.29 230.678 1460.17 215.535C1479.57 199.678 1500.04 189.847 1521.57 186.044C1548.8 181.235 1570.3 186.451 1586.05 201.693C1602.44 216.824 1612.49 234.937 1616.22 256.033C1619.41 274.115 1619.23 291.551 1615.66 308.341C1612.1 325.131 1608.37 341.016 1604.49 355.998C1601.23 370.867 1600.78 384.932 1603.12 398.193C1604.82 407.836 1608.27 414.376 1613.44 417.813C1619.15 420.534 1624.85 421.392 1630.55 420.385C1645.75 417.701 1660.36 407.973 1674.38 391.202C1688.4 374.43 1700.83 354.211 1711.67 330.542C1723.04 306.159 1732.5 282.112 1740.07 258.4L1758.46 268.205C1750.37 300.088 1739.96 329.896 1727.23 357.628C1715.02 384.646 1699.8 407.534 1681.56 426.294C1663.84 444.339 1642.32 455.599 1616.99 460.073Z" fill="#344152"/>
<path d="M596.595 1738.65C561.128 1744.91 526.915 1741.63 493.955 1728.81C461.102 1716.58 432.828 1695.16 409.133 1664.54C385.332 1633.32 369.227 1593.9 360.818 1546.28C352.621 1499.87 351.918 1451.51 358.708 1401.21C365.499 1350.91 378.415 1302.01 397.457 1254.52C416.392 1206.43 439.979 1162.48 468.218 1122.69C496.456 1082.9 527.872 1050 562.466 1024C597.586 997.287 634.463 980.519 673.096 973.696C700.962 968.775 724.034 969.983 742.31 977.322C760.48 984.057 774.485 994.947 784.326 1009.99C794.8 1024.92 801.687 1041.73 804.987 1060.42C808.712 1081.51 808.322 1103.33 803.814 1125.88C799.94 1148.32 792.26 1167.7 780.775 1184.03C769.924 1200.24 756.265 1209.8 739.798 1212.71C732.198 1214.05 724.859 1213.17 717.78 1210.07C710.702 1206.97 702.985 1200.25 694.629 1189.92C703.064 1182.21 711.652 1169.82 720.39 1152.74C729.762 1135.54 737.285 1117.12 742.958 1097.47C748.525 1077.22 750.031 1059.87 747.476 1045.4C745.347 1033.35 739.474 1024.13 729.857 1017.75C720.766 1010.65 707.038 1008.72 688.671 1011.97C660.172 1017 632.531 1032.45 605.751 1058.31C579.497 1083.46 555.734 1115.31 534.462 1153.88C513.084 1191.84 494.984 1233.57 480.163 1279.07C465.868 1323.86 456.22 1369.07 451.217 1414.71C446.109 1459.74 446.961 1501.54 453.774 1540.12C463.46 1594.97 483.368 1635.58 513.497 1661.96C544.153 1687.62 576.897 1697.38 611.73 1691.22C637.697 1686.64 660.063 1674.61 678.828 1655.13C698.227 1635.55 713.924 1611.64 725.92 1583.42C738.443 1554.48 747.109 1524.05 751.92 1492.12C756.731 1460.2 757.848 1429.54 755.272 1400.17C723.174 1399.62 688.759 1402.59 652.026 1409.08C641.892 1410.87 631.812 1412.96 621.786 1415.35C611.652 1417.14 600.939 1419.34 589.646 1421.96C593.174 1379.07 614.887 1354.1 654.787 1347.06C673.787 1343.7 693.319 1343.36 713.383 1346.03C733.975 1347.99 754.672 1350.55 775.477 1353.71C796.914 1356.76 817.505 1358.72 837.25 1359.58L832.7 1389.29C827.155 1424.45 822.552 1453.86 818.891 1477.5C815.756 1500.43 813.673 1520.06 812.641 1536.41C811.502 1552.15 811.417 1566.46 812.386 1579.34C813.248 1591.62 814.85 1604.38 817.192 1617.64C819.321 1629.7 821.82 1642 824.689 1654.55C827.664 1667.69 831.118 1683.55 835.051 1702.13C815.626 1703.07 800.418 1700.16 789.427 1693.4C779.177 1687.13 771.51 1678.85 766.428 1668.56C761.978 1658.16 758.849 1647.84 757.039 1637.59C756.507 1634.58 755.975 1631.56 755.442 1628.55C754.91 1625.54 754.695 1622.47 754.796 1619.34C737.206 1649.17 715.282 1674.8 689.023 1696.22C663.504 1718.13 632.695 1732.27 596.595 1738.65Z" fill="#344152"/>
<path d="M980.123 1619.64C951.623 1624.67 930.393 1619.1 916.433 1602.92C903.213 1587.23 894.74 1568.83 891.014 1547.74C887.608 1528.45 887.315 1508.3 890.135 1487.29C892.849 1465.68 898.046 1445.18 905.726 1425.8C914.038 1406.31 923.94 1390.27 935.43 1377.67C947.447 1364.36 960.423 1356.47 974.356 1354.01C978.789 1353.23 984.015 1353.24 990.035 1354.04C996.581 1354.13 1001.39 1355.46 1004.45 1358.02C996.448 1371.87 988.766 1389.38 981.406 1410.57C974.572 1431.05 969.482 1452.15 966.135 1473.87C963.421 1495.48 963.554 1514.73 966.535 1531.6C968.664 1543.66 972.637 1553.21 978.454 1560.26C984.904 1567.2 994.146 1569.61 1006.18 1567.49C1018.21 1565.36 1031.34 1556.52 1045.58 1540.95C1060.33 1524.67 1073.82 1506.75 1086.04 1487.19C1062.69 1473.29 1044.77 1456.87 1032.28 1437.95C1019.69 1418.42 1010.79 1393.88 1005.57 1364.35C1003.33 1351.69 1003.95 1336.67 1007.41 1319.28C1011.5 1301.77 1019.76 1285.71 1032.2 1271.08C1045.27 1256.34 1064.47 1246.73 1089.81 1242.26C1117.04 1237.45 1137.32 1241.33 1150.64 1253.89C1164.59 1266.34 1173.33 1282.51 1176.84 1302.4C1180.78 1324.71 1178.86 1350.84 1171.09 1380.8C1163.96 1410.65 1154.02 1439.44 1141.29 1467.18C1149.52 1469.45 1158.71 1469.69 1168.84 1467.9C1178.34 1466.23 1189.37 1462.1 1201.93 1455.53C1214.48 1448.97 1226.24 1439.74 1237.2 1427.86C1248.06 1415.38 1255.8 1400.03 1260.42 1381.81L1279.59 1390.54C1271.09 1423.74 1256.4 1449.64 1235.52 1468.25C1215.17 1486.14 1193.91 1497.04 1171.74 1500.95C1163.51 1502.41 1155.17 1503.26 1146.72 1503.51C1138.17 1503.15 1130.2 1502.39 1122.8 1501.21C1105.53 1529.12 1084.56 1554.58 1059.88 1577.58C1035.21 1600.58 1008.62 1614.6 980.123 1619.64ZM1105.63 1453.89C1117.11 1430.11 1126.1 1405.22 1132.61 1379.21C1139.11 1353.2 1140.56 1329.94 1136.94 1309.45C1132.26 1282.93 1121.05 1271.24 1103.31 1274.37C1091.28 1276.49 1080.37 1286.81 1070.58 1305.32C1060.78 1323.83 1058.07 1345.44 1062.43 1370.16C1064.67 1382.81 1069.6 1397.79 1077.23 1415.09C1085.49 1432.28 1094.96 1445.21 1105.63 1453.89Z" fill="#344152"/>
<path d="M1327.6 1251.54C1335.47 1214.72 1343.81 1176.89 1352.62 1138.04C1361.44 1099.19 1370.57 1062.15 1380.02 1026.92C1389.36 991.082 1399.03 958.92 1409.02 930.429C1418.9 901.336 1429.16 878.081 1439.8 860.663C1451.07 843.134 1462.73 833.307 1474.76 831.182C1481.73 829.951 1488.22 831.601 1494.25 836.131C1500.8 839.946 1504.77 845.772 1506.15 853.607C1507.64 862.046 1505.19 879.572 1498.78 906.185C1493.01 932.687 1484.61 964.626 1473.58 1002C1462.55 1039.38 1449.99 1079.2 1435.9 1121.47C1421.82 1163.73 1407.62 1205.4 1393.32 1246.46C1378.92 1286.92 1365.14 1323.53 1351.99 1356.31C1338.84 1389.09 1327.68 1414.68 1318.52 1433.08C1316.52 1432.81 1314.51 1432.54 1312.5 1432.28C1310.5 1432.01 1308.49 1431.74 1306.48 1431.47C1304.35 1415.69 1304.06 1397.41 1305.61 1376.62C1307.8 1355.72 1310.88 1334.36 1314.86 1312.52C1319.37 1289.97 1323.62 1269.64 1327.6 1251.54ZM1305.37 1541.68C1295.24 1543.47 1285.95 1542.63 1277.5 1539.15C1269.05 1535.67 1263.86 1528.5 1261.95 1517.65C1259.92 1506.2 1264.5 1495.14 1275.68 1484.46C1287.49 1473.68 1300.99 1466.94 1316.19 1464.26C1325.69 1462.58 1333.66 1463.34 1340.11 1466.56C1347.19 1469.66 1351.63 1476.33 1353.44 1486.58C1355.25 1496.82 1351.36 1508.08 1341.77 1520.34C1332.07 1531.99 1319.94 1539.11 1305.37 1541.68Z" fill="#344152"/>
<path d="M1054.26 1086.37C1033.99 1089.95 1015.41 1089.19 998.506 1084.09C981.975 1079.24 968.317 1071.24 957.532 1060.1C947.063 1048.89 940.472 1035.61 937.757 1020.24C934.564 1002.15 936.728 983.903 944.251 965.482C951.72 946.76 963.442 929.928 979.416 914.987C995.653 899.689 1015.22 888.463 1038.12 881.311C1025.34 873.625 1014.9 864.436 1006.81 853.745C999.03 842.999 994.077 831.598 991.948 819.543C989.074 803.269 990.635 787.144 996.63 771.168C1002.62 755.193 1012.58 741.314 1026.5 729.533C1040.74 717.695 1058.15 709.959 1078.73 706.324C1097.73 702.968 1112.91 704.793 1124.27 711.799C1135.9 718.448 1143.14 729.909 1146.02 746.183C1148.04 757.635 1147.98 769.3 1145.83 781.178C1143.63 792.754 1140.16 802.69 1135.42 810.986C1130.63 818.98 1125.22 823.508 1119.21 824.571C1114.77 825.354 1110.18 824.301 1105.42 821.411C1100.93 818.164 1096.84 814.382 1093.13 810.063C1103.25 798.953 1111.24 787.754 1117.08 776.467C1123.24 765.123 1125.39 754.178 1123.53 743.63C1122.04 735.191 1118.3 728.858 1112.33 724.63C1106.31 720.1 1097.75 718.813 1086.67 720.771C1072.42 723.288 1061.08 729.33 1052.65 738.9C1044.21 748.469 1038.58 760.03 1035.75 773.582C1032.87 786.833 1032.73 800.842 1035.34 815.609C1036.56 822.541 1038.55 830.114 1041.31 838.329C1044.38 846.487 1049.22 854.489 1055.83 862.334C1062.39 869.878 1071.43 876.672 1082.95 882.718C1060.73 890.06 1042.27 901.09 1027.56 915.807C1012.8 930.223 1002.19 945.927 995.718 962.919C989.249 979.911 987.345 995.941 990.007 1011.01C991.603 1020.05 995.154 1029.06 1000.66 1038.03C1006.48 1046.95 1014.56 1053.91 1024.92 1058.92C1035.27 1063.93 1047.89 1065.12 1062.77 1062.49C1079.87 1059.47 1095.52 1052.82 1109.7 1042.55C1123.89 1032.27 1136.2 1019.69 1146.63 1004.79C1157.32 989.54 1165.38 973.2 1170.79 955.774C1176.2 938.347 1178.53 921 1177.76 903.731C1171.8 905.095 1166.02 906.582 1160.43 908.191C1155.15 909.745 1148.98 911.768 1141.91 914.259C1135.15 916.695 1126.1 920.002 1114.76 924.181C1112.36 908.756 1115.93 897.558 1125.48 890.589C1135.02 883.621 1147.08 878.85 1161.65 876.277C1171.78 874.488 1181.07 873.469 1189.52 873.22C1198.28 872.915 1206.91 872.789 1215.41 872.842C1224.17 872.538 1233.78 871.463 1244.23 869.617C1240.92 880.457 1237.39 887.295 1233.65 890.132C1230.17 892.611 1226.53 894.187 1222.73 894.858C1217.03 895.864 1212.14 896.882 1208.08 897.91C1204.28 898.581 1200.32 899.28 1196.21 900.008C1197.61 920.892 1194.89 941.572 1188.06 962.046C1181.54 982.465 1171.83 1001.43 1158.92 1018.94C1146.01 1036.44 1130.65 1051.12 1112.82 1062.97C1094.99 1074.82 1075.47 1082.62 1054.26 1086.37Z" fill="#344152"/>
<path d="M251.406 763.713C214.673 770.201 178.459 770.381 142.763 764.254C107.701 758.016 77.5379 744.386 52.2736 723.365C27.0093 702.344 11.1304 673.45 4.637 636.683C-1.11129 604.135 2.01777 577.477 14.0242 556.711C25.9241 535.341 42.6353 519.027 64.1578 507.767C85.6803 496.508 107.208 488.977 128.741 485.174C112.094 509.246 100.303 533.082 93.3688 556.682C87.0677 580.171 85.6736 601.86 89.1865 621.75C92.8058 642.243 101.595 660.58 115.556 676.761C130.043 692.227 149.327 703.427 173.41 710.362C197.599 717.899 226.16 718.759 259.093 712.943C287.593 707.91 314.345 698.524 339.348 684.785C364.984 670.934 384.755 653.458 398.662 632.355C413.202 611.141 418.076 586.973 413.286 559.849C408.922 535.137 397.596 515.384 379.309 500.589C361.549 485.079 339.728 472.462 313.847 462.738C287.859 452.41 260.764 443.211 232.562 435.139C204.253 426.465 177.052 416.663 150.957 405.733C124.863 394.803 102.459 380.735 83.7466 363.529C65.6672 346.211 54.1792 323.689 49.2825 295.963C44.918 271.251 46.6208 243.914 54.3907 213.95C62.6875 183.273 76.6869 153.453 96.3889 124.49C116.091 95.5273 141.711 70.4917 173.25 49.3832C204.682 27.672 241.298 13.1252 283.098 5.74296C326.797 -1.97485 359.057 1.34003 379.878 15.6876C400.698 30.0351 413.61 51.3733 418.613 79.7021C422.551 102.003 422.639 126.539 418.877 153.308C415.115 180.077 409.239 205.976 401.251 231.005C393.896 255.923 386.273 277.469 378.38 295.645C349.556 295.142 332.908 282.232 328.437 256.917C326.202 244.26 326.233 229.648 328.532 213.082C331.465 196.404 334.924 179.012 338.91 160.905C343.529 142.686 346.988 125.293 349.287 108.727C352.113 91.4466 352.462 76.7788 350.333 64.724C348.416 53.8747 343.443 46.0516 335.412 41.2546C328.014 36.3457 314.182 35.6809 293.915 39.2602C263.515 44.6291 236.767 55.8794 213.669 73.011C190.571 90.1426 171.226 110.03 155.632 132.673C140.672 155.205 130.041 178.214 123.74 201.703C117.333 224.588 115.672 244.771 118.759 262.25C122.592 283.949 133.175 301.347 150.509 314.446C167.737 326.942 188.869 337.505 213.904 346.136C239.573 354.655 266.191 363.006 293.76 371.19C321.962 379.261 348.846 389.119 374.414 400.764C400.615 412.296 422.915 427.626 441.313 446.752C459.712 465.878 471.679 491.112 477.215 522.454C482.75 553.797 480.047 582.865 469.105 609.659C458.796 636.341 442.412 660.056 419.953 680.804C397.601 702.155 371.653 719.79 342.11 733.709C313.307 748.119 283.073 758.121 251.406 763.713Z" stroke="#3E4F65" stroke-width="2" mask="url(#path-1-outside-1_14_1033)"/>
<path d="M671.467 660.625C638.534 666.441 609.544 661.305 584.498 645.218C560.192 629.621 544.473 601.631 537.341 561.248C532.125 531.714 533.032 501.72 540.062 471.266C547.092 440.812 558.771 412.644 575.099 386.764C591.32 360.28 610.61 338.228 632.968 320.605C655.959 302.871 680.438 291.711 706.405 287.125C733.005 282.427 753.122 285.4 766.757 296.044C781.026 306.577 789.651 320.281 792.631 337.158C795.612 354.034 794.106 371.393 788.114 389.233C782.648 406.358 772.632 416.207 758.065 418.779C746.032 420.905 735.204 416.912 725.582 406.802C731.17 401.465 736.436 392.455 741.38 379.772C746.324 367.09 747.199 351.708 744.006 333.625C742.196 323.379 735.275 319.318 723.242 321.443C707.408 324.24 691.849 334.135 676.564 351.13C661.806 367.41 648.744 387.742 637.376 412.125C626.535 435.794 618.494 460.522 613.252 486.309C608.537 511.382 607.935 533.863 611.448 553.754C614.429 570.63 621.63 585.519 633.051 598.418C645 610.604 664.274 614.347 690.873 609.649C714.94 605.399 738.786 594.351 762.41 576.505C786.035 558.658 807.171 535.968 825.82 508.435C844.361 480.299 857.672 448.425 865.75 412.814L887.624 425.732C878.918 465.183 863.503 501.78 841.379 535.521C819.782 568.547 793.955 596.106 763.896 618.196C734.576 640.777 703.767 654.92 671.467 660.625Z" stroke="#3E4F65" stroke-width="2" mask="url(#path-1-outside-1_14_1033)"/>
<path d="M932.236 606.179C911.336 609.871 892.115 606.428 874.573 595.852C856.398 585.388 844.969 566.896 840.285 540.376C836.559 519.28 837.581 495.481 843.349 468.979C849.118 442.477 858.74 415.605 872.216 388.364C885.691 361.122 902.125 335.845 921.519 312.53C940.806 288.613 962.368 268.334 986.205 251.694C1010.04 235.053 1034.94 224.44 1060.91 219.854C1088.14 215.044 1112.43 217.591 1133.77 227.496C1155.12 237.401 1167.7 253.202 1171.53 274.901C1174.41 291.175 1170.47 303.991 1159.71 313.349C1148.96 322.707 1135.08 327.333 1118.08 327.228C1118.39 321.58 1118.38 315.987 1118.06 310.451C1118.36 304.802 1117.99 298.964 1116.92 292.937C1114.79 280.882 1110.34 270.48 1103.57 261.731C1096.8 252.982 1085.19 250.062 1068.72 252.97C1050.99 256.102 1033.95 265.016 1017.6 279.711C1001.26 294.407 986.188 312.608 972.388 334.312C959.115 355.303 947.797 378.123 938.436 402.773C928.968 426.821 922.297 450.064 918.423 472.502C914.549 494.94 914.102 514.597 917.083 531.474C920.489 550.762 929.476 559.119 944.042 556.547C958.609 553.974 973.588 544.492 988.979 528.099C1004.26 511.105 1018.96 490.795 1033.08 467.17C1047.82 443.433 1061.57 419.562 1074.31 395.558C1086.94 370.952 1097.95 350.051 1107.32 332.858C1108.69 329.508 1110.95 327.554 1114.12 326.995C1116.76 327.15 1121.78 327.818 1129.17 328.999C1137.09 329.465 1144.59 331.248 1151.67 334.349C1158.74 337.449 1162.87 342.315 1164.04 348.945C1165.42 356.781 1162.91 368.413 1156.49 383.842C1149.96 398.668 1143.33 414.755 1136.6 432.104C1130.5 449.342 1128.63 464.59 1130.97 477.851C1132.35 485.686 1135.9 492.829 1141.61 499.279C1147.21 505.126 1155.08 507.155 1165.22 505.365C1180.41 502.681 1199.77 488.386 1223.28 462.48C1247.31 435.86 1269.05 394.417 1288.5 338.151L1309.59 352.141C1294.88 405.704 1272.83 450.932 1243.43 487.823C1214.02 524.715 1181.59 546.292 1146.12 552.556C1120.15 557.142 1099.45 552.718 1084.02 539.284C1068.58 525.85 1058.64 510.203 1054.18 492.345L1053.38 487.824C1033.16 521.23 1013.77 548.272 995.215 568.952C977.295 589.52 956.302 601.929 932.236 606.179Z" stroke="#3E4F65" stroke-width="2" mask="url(#path-1-outside-1_14_1033)"/>
<path d="M1616.99 460.073C1592.29 464.435 1572.23 461.763 1556.8 452.057C1542.11 442.842 1533.17 429.194 1529.97 411.111C1527.84 399.057 1527.82 386.008 1529.92 371.965C1531.9 357.319 1533.89 342.673 1535.87 328.027C1537.86 313.381 1537.73 299.729 1535.49 287.071C1533.15 273.811 1528.07 265.385 1520.25 261.794C1512.96 257.488 1504.88 256.117 1496.02 257.683C1477.02 261.039 1458.72 272.041 1441.11 290.688C1424.03 308.622 1407.96 330.417 1392.9 356.073C1378.47 381.619 1365.15 407.9 1352.95 434.918C1340.74 461.935 1330.32 486.151 1321.69 507.564C1309.66 509.689 1297.89 509.592 1286.38 507.275C1274.97 505.56 1264.62 500.552 1255.31 492.25C1255.41 489.124 1257.62 479.412 1261.92 463.113C1265.49 446.324 1269.52 426.654 1274.03 404.104C1278.43 380.951 1281.72 357.062 1283.91 332.437C1286.09 307.811 1285.48 285.855 1282.07 266.567C1285.65 260.962 1291.45 254.966 1299.46 248.578C1308.11 242.079 1317.5 237.934 1327.64 236.144C1349.8 232.229 1362.48 239.313 1365.68 257.395C1368.55 273.669 1367.9 301.442 1363.74 340.713C1376.48 316.709 1391.02 293.631 1407.35 271.479C1423.68 249.326 1441.29 230.678 1460.17 215.535C1479.57 199.678 1500.04 189.847 1521.57 186.044C1548.8 181.235 1570.3 186.451 1586.05 201.693C1602.44 216.824 1612.49 234.937 1616.22 256.033C1619.41 274.115 1619.23 291.551 1615.66 308.341C1612.1 325.131 1608.37 341.016 1604.49 355.998C1601.23 370.867 1600.78 384.932 1603.12 398.193C1604.82 407.836 1608.27 414.376 1613.44 417.813C1619.15 420.534 1624.85 421.392 1630.55 420.385C1645.75 417.701 1660.36 407.973 1674.38 391.202C1688.4 374.43 1700.83 354.211 1711.67 330.542C1723.04 306.159 1732.5 282.112 1740.07 258.4L1758.46 268.205C1750.37 300.088 1739.96 329.896 1727.23 357.628C1715.02 384.646 1699.8 407.534 1681.56 426.294C1663.84 444.339 1642.32 455.599 1616.99 460.073Z" stroke="#3E4F65" stroke-width="2" mask="url(#path-1-outside-1_14_1033)"/>
<path d="M596.595 1738.65C561.128 1744.91 526.915 1741.63 493.955 1728.81C461.102 1716.58 432.828 1695.16 409.133 1664.54C385.332 1633.32 369.227 1593.9 360.818 1546.28C352.621 1499.87 351.918 1451.51 358.708 1401.21C365.499 1350.91 378.415 1302.01 397.457 1254.52C416.392 1206.43 439.979 1162.48 468.218 1122.69C496.456 1082.9 527.872 1050 562.466 1024C597.586 997.287 634.463 980.519 673.096 973.696C700.962 968.775 724.034 969.983 742.31 977.322C760.48 984.057 774.485 994.947 784.326 1009.99C794.8 1024.92 801.687 1041.73 804.987 1060.42C808.712 1081.51 808.322 1103.33 803.814 1125.88C799.94 1148.32 792.26 1167.7 780.775 1184.03C769.924 1200.24 756.265 1209.8 739.798 1212.71C732.198 1214.05 724.859 1213.17 717.78 1210.07C710.702 1206.97 702.985 1200.25 694.629 1189.92C703.064 1182.21 711.652 1169.82 720.39 1152.74C729.762 1135.54 737.285 1117.12 742.958 1097.47C748.525 1077.22 750.031 1059.87 747.476 1045.4C745.347 1033.35 739.474 1024.13 729.857 1017.75C720.766 1010.65 707.038 1008.72 688.671 1011.97C660.172 1017 632.531 1032.45 605.751 1058.31C579.497 1083.46 555.734 1115.31 534.462 1153.88C513.084 1191.84 494.984 1233.57 480.163 1279.07C465.868 1323.86 456.22 1369.07 451.217 1414.71C446.109 1459.74 446.961 1501.54 453.774 1540.12C463.46 1594.97 483.368 1635.58 513.497 1661.96C544.153 1687.62 576.897 1697.38 611.73 1691.22C637.697 1686.64 660.063 1674.61 678.828 1655.13C698.227 1635.55 713.924 1611.64 725.92 1583.42C738.443 1554.48 747.109 1524.05 751.92 1492.12C756.731 1460.2 757.848 1429.54 755.272 1400.17C723.174 1399.62 688.759 1402.59 652.026 1409.08C641.892 1410.87 631.812 1412.96 621.786 1415.35C611.652 1417.14 600.939 1419.34 589.646 1421.96C593.174 1379.07 614.887 1354.1 654.787 1347.06C673.787 1343.7 693.319 1343.36 713.383 1346.03C733.975 1347.99 754.672 1350.55 775.477 1353.71C796.914 1356.76 817.505 1358.72 837.25 1359.58L832.7 1389.29C827.155 1424.45 822.552 1453.86 818.891 1477.5C815.756 1500.43 813.673 1520.06 812.641 1536.41C811.502 1552.15 811.417 1566.46 812.386 1579.34C813.248 1591.62 814.85 1604.38 817.192 1617.64C819.321 1629.7 821.82 1642 824.689 1654.55C827.664 1667.69 831.118 1683.55 835.051 1702.13C815.626 1703.07 800.418 1700.16 789.427 1693.4C779.177 1687.13 771.51 1678.85 766.428 1668.56C761.978 1658.16 758.849 1647.84 757.039 1637.59C756.507 1634.58 755.975 1631.56 755.442 1628.55C754.91 1625.54 754.695 1622.47 754.796 1619.34C737.206 1649.17 715.282 1674.8 689.023 1696.22C663.504 1718.13 632.695 1732.27 596.595 1738.65Z" stroke="#3E4F65" stroke-width="2" mask="url(#path-1-outside-1_14_1033)"/>
<path d="M980.123 1619.64C951.623 1624.67 930.393 1619.1 916.433 1602.92C903.213 1587.23 894.74 1568.83 891.014 1547.74C887.608 1528.45 887.315 1508.3 890.135 1487.29C892.849 1465.68 898.046 1445.18 905.726 1425.8C914.038 1406.31 923.94 1390.27 935.43 1377.67C947.447 1364.36 960.423 1356.47 974.356 1354.01C978.789 1353.23 984.015 1353.24 990.035 1354.04C996.581 1354.13 1001.39 1355.46 1004.45 1358.02C996.448 1371.87 988.766 1389.38 981.406 1410.57C974.572 1431.05 969.482 1452.15 966.135 1473.87C963.421 1495.48 963.554 1514.73 966.535 1531.6C968.664 1543.66 972.637 1553.21 978.454 1560.26C984.904 1567.2 994.146 1569.61 1006.18 1567.49C1018.21 1565.36 1031.34 1556.52 1045.58 1540.95C1060.33 1524.67 1073.82 1506.75 1086.04 1487.19C1062.69 1473.29 1044.77 1456.87 1032.28 1437.95C1019.69 1418.42 1010.79 1393.88 1005.57 1364.35C1003.33 1351.69 1003.95 1336.67 1007.41 1319.28C1011.5 1301.77 1019.76 1285.71 1032.2 1271.08C1045.27 1256.34 1064.47 1246.73 1089.81 1242.26C1117.04 1237.45 1137.32 1241.33 1150.64 1253.89C1164.59 1266.34 1173.33 1282.51 1176.84 1302.4C1180.78 1324.71 1178.86 1350.84 1171.09 1380.8C1163.96 1410.65 1154.02 1439.44 1141.29 1467.18C1149.52 1469.45 1158.71 1469.69 1168.84 1467.9C1178.34 1466.23 1189.37 1462.1 1201.93 1455.53C1214.48 1448.97 1226.24 1439.74 1237.2 1427.86C1248.06 1415.38 1255.8 1400.03 1260.42 1381.81L1279.59 1390.54C1271.09 1423.74 1256.4 1449.64 1235.52 1468.25C1215.17 1486.14 1193.91 1497.04 1171.74 1500.95C1163.51 1502.41 1155.17 1503.26 1146.72 1503.51C1138.17 1503.15 1130.2 1502.39 1122.8 1501.21C1105.53 1529.12 1084.56 1554.58 1059.88 1577.58C1035.21 1600.58 1008.62 1614.6 980.123 1619.64ZM1105.63 1453.89C1117.11 1430.11 1126.1 1405.22 1132.61 1379.21C1139.11 1353.2 1140.56 1329.94 1136.94 1309.45C1132.26 1282.93 1121.05 1271.24 1103.31 1274.37C1091.28 1276.49 1080.37 1286.81 1070.58 1305.32C1060.78 1323.83 1058.07 1345.44 1062.43 1370.16C1064.67 1382.81 1069.6 1397.79 1077.23 1415.09C1085.49 1432.28 1094.96 1445.21 1105.63 1453.89Z" stroke="#3E4F65" stroke-width="2" mask="url(#path-1-outside-1_14_1033)"/>
<path d="M1327.6 1251.54C1335.47 1214.72 1343.81 1176.89 1352.62 1138.04C1361.44 1099.19 1370.57 1062.15 1380.02 1026.92C1389.36 991.082 1399.03 958.92 1409.02 930.429C1418.9 901.336 1429.16 878.081 1439.8 860.663C1451.07 843.134 1462.73 833.307 1474.76 831.182C1481.73 829.951 1488.22 831.601 1494.25 836.131C1500.8 839.946 1504.77 845.772 1506.15 853.607C1507.64 862.046 1505.19 879.572 1498.78 906.185C1493.01 932.687 1484.61 964.626 1473.58 1002C1462.55 1039.38 1449.99 1079.2 1435.9 1121.47C1421.82 1163.73 1407.62 1205.4 1393.32 1246.46C1378.92 1286.92 1365.14 1323.53 1351.99 1356.31C1338.84 1389.09 1327.68 1414.68 1318.52 1433.08C1316.52 1432.81 1314.51 1432.54 1312.5 1432.28C1310.5 1432.01 1308.49 1431.74 1306.48 1431.47C1304.35 1415.69 1304.06 1397.41 1305.61 1376.62C1307.8 1355.72 1310.88 1334.36 1314.86 1312.52C1319.37 1289.97 1323.62 1269.64 1327.6 1251.54ZM1305.37 1541.68C1295.24 1543.47 1285.95 1542.63 1277.5 1539.15C1269.05 1535.67 1263.86 1528.5 1261.95 1517.65C1259.92 1506.2 1264.5 1495.14 1275.68 1484.46C1287.49 1473.68 1300.99 1466.94 1316.19 1464.26C1325.69 1462.58 1333.66 1463.34 1340.11 1466.56C1347.19 1469.66 1351.63 1476.33 1353.44 1486.58C1355.25 1496.82 1351.36 1508.08 1341.77 1520.34C1332.07 1531.99 1319.94 1539.11 1305.37 1541.68Z" stroke="#3E4F65" stroke-width="2" mask="url(#path-1-outside-1_14_1033)"/>
<path d="M1054.26 1086.37C1033.99 1089.95 1015.41 1089.19 998.506 1084.09C981.975 1079.24 968.317 1071.24 957.532 1060.1C947.063 1048.89 940.472 1035.61 937.757 1020.24C934.564 1002.15 936.728 983.903 944.251 965.482C951.72 946.76 963.442 929.928 979.416 914.987C995.653 899.689 1015.22 888.463 1038.12 881.311C1025.34 873.625 1014.9 864.436 1006.81 853.745C999.03 842.999 994.077 831.598 991.948 819.543C989.074 803.269 990.635 787.144 996.63 771.168C1002.62 755.193 1012.58 741.314 1026.5 729.533C1040.74 717.695 1058.15 709.959 1078.73 706.324C1097.73 702.968 1112.91 704.793 1124.27 711.799C1135.9 718.448 1143.14 729.909 1146.02 746.183C1148.04 757.635 1147.98 769.3 1145.83 781.178C1143.63 792.754 1140.16 802.69 1135.42 810.986C1130.63 818.98 1125.22 823.508 1119.21 824.571C1114.77 825.354 1110.18 824.301 1105.42 821.411C1100.93 818.164 1096.84 814.382 1093.13 810.063C1103.25 798.953 1111.24 787.754 1117.08 776.467C1123.24 765.123 1125.39 754.178 1123.53 743.63C1122.04 735.191 1118.3 728.858 1112.33 724.63C1106.31 720.1 1097.75 718.813 1086.67 720.771C1072.42 723.288 1061.08 729.33 1052.65 738.9C1044.21 748.469 1038.58 760.03 1035.75 773.582C1032.87 786.833 1032.73 800.842 1035.34 815.609C1036.56 822.541 1038.55 830.114 1041.31 838.329C1044.38 846.487 1049.22 854.489 1055.83 862.334C1062.39 869.878 1071.43 876.672 1082.95 882.718C1060.73 890.06 1042.27 901.09 1027.56 915.807C1012.8 930.223 1002.19 945.927 995.718 962.919C989.249 979.911 987.345 995.941 990.007 1011.01C991.603 1020.05 995.154 1029.06 1000.66 1038.03C1006.48 1046.95 1014.56 1053.91 1024.92 1058.92C1035.27 1063.93 1047.89 1065.12 1062.77 1062.49C1079.87 1059.47 1095.52 1052.82 1109.7 1042.55C1123.89 1032.27 1136.2 1019.69 1146.63 1004.79C1157.32 989.54 1165.38 973.2 1170.79 955.774C1176.2 938.347 1178.53 921 1177.76 903.731C1171.8 905.095 1166.02 906.582 1160.43 908.191C1155.15 909.745 1148.98 911.768 1141.91 914.259C1135.15 916.695 1126.1 920.002 1114.76 924.181C1112.36 908.756 1115.93 897.558 1125.48 890.589C1135.02 883.621 1147.08 878.85 1161.65 876.277C1171.78 874.488 1181.07 873.469 1189.52 873.22C1198.28 872.915 1206.91 872.789 1215.41 872.842C1224.17 872.538 1233.78 871.463 1244.23 869.617C1240.92 880.457 1237.39 887.295 1233.65 890.132C1230.17 892.611 1226.53 894.187 1222.73 894.858C1217.03 895.864 1212.14 896.882 1208.08 897.91C1204.28 898.581 1200.32 899.28 1196.21 900.008C1197.61 920.892 1194.89 941.572 1188.06 962.046C1181.54 982.465 1171.83 1001.43 1158.92 1018.94C1146.01 1036.44 1130.65 1051.12 1112.82 1062.97C1094.99 1074.82 1075.47 1082.62 1054.26 1086.37Z" stroke="#3E4F65" stroke-width="2" mask="url(#path-1-outside-1_14_1033)"/>
</svg>
