<svg width="74" height="11" viewBox="0 0 74 11" fill="none" xmlns="http://www.w3.org/2000/svg">
<path d="M4.59017 10.154C3.87151 10.154 3.23684 10.0653 2.68617 9.888C2.13551 9.70133 1.66884 9.426 1.28617 9.062C0.912839 8.698 0.628172 8.24533 0.432172 7.704C0.245505 7.15333 0.152172 6.51867 0.152172 5.8V1.306C0.152172 0.876666 0.264172 0.554666 0.488172 0.339999C0.712172 0.115999 1.02951 0.00399935 1.44017 0.00399935C1.86017 0.00399935 2.17751 0.115999 2.39217 0.339999C2.61617 0.554666 2.72817 0.876666 2.72817 1.306V5.828C2.72817 6.54667 2.88684 7.088 3.20417 7.452C3.52151 7.816 3.98351 7.998 4.59017 7.998C5.18751 7.998 5.64484 7.816 5.96217 7.452C6.27951 7.088 6.43817 6.54667 6.43817 5.828V1.306C6.43817 0.876666 6.54551 0.554666 6.76017 0.339999C6.98417 0.115999 7.30151 0.00399935 7.71217 0.00399935C8.12284 0.00399935 8.43551 0.115999 8.65017 0.339999C8.86484 0.554666 8.97217 0.876666 8.97217 1.306V5.8C8.97217 6.76133 8.80417 7.56867 8.46817 8.222C8.14151 8.866 7.65151 9.35133 6.99817 9.678C6.34484 9.99533 5.54217 10.154 4.59017 10.154ZM11.8848 10.126C11.5115 10.126 11.2222 10.0233 11.0168 9.818C10.8208 9.61267 10.7228 9.32333 10.7228 8.95V1.18C10.7228 0.797333 10.8302 0.508 11.0448 0.312C11.2595 0.106666 11.5628 0.00399935 11.9548 0.00399935C12.2815 0.00399935 12.5382 0.0693327 12.7248 0.199999C12.9208 0.321333 13.0982 0.526666 13.2568 0.816L16.2668 6.22H15.7768L18.7728 0.816C18.9408 0.526666 19.1182 0.321333 19.3048 0.199999C19.5008 0.0693327 19.7622 0.00399935 20.0888 0.00399935C20.4622 0.00399935 20.7468 0.106666 20.9428 0.312C21.1482 0.508 21.2508 0.797333 21.2508 1.18V8.95C21.2508 9.32333 21.1528 9.61267 20.9568 9.818C20.7608 10.0233 20.4715 10.126 20.0888 10.126C19.7155 10.126 19.4262 10.0233 19.2208 9.818C19.0248 9.61267 18.9268 9.32333 18.9268 8.95V4.134H19.2208L16.9668 8.054C16.8362 8.25933 16.6962 8.41333 16.5468 8.516C16.4068 8.61867 16.2155 8.67 15.9728 8.67C15.7395 8.67 15.5482 8.61867 15.3988 8.516C15.2495 8.41333 15.1142 8.25933 14.9928 8.054L12.7248 4.12H13.0468V8.95C13.0468 9.32333 12.9488 9.61267 12.7528 9.818C12.5568 10.0233 12.2675 10.126 11.8848 10.126ZM27.4359 10.154C26.7172 10.154 26.0825 10.0653 25.5319 9.888C24.9812 9.70133 24.5145 9.426 24.1319 9.062C23.7585 8.698 23.4739 8.24533 23.2779 7.704C23.0912 7.15333 22.9979 6.51867 22.9979 5.8V1.306C22.9979 0.876666 23.1099 0.554666 23.3339 0.339999C23.5579 0.115999 23.8752 0.00399935 24.2859 0.00399935C24.7059 0.00399935 25.0232 0.115999 25.2379 0.339999C25.4619 0.554666 25.5739 0.876666 25.5739 1.306V5.828C25.5739 6.54667 25.7325 7.088 26.0499 7.452C26.3672 7.816 26.8292 7.998 27.4359 7.998C28.0332 7.998 28.4905 7.816 28.8079 7.452C29.1252 7.088 29.2839 6.54667 29.2839 5.828V1.306C29.2839 0.876666 29.3912 0.554666 29.6059 0.339999C29.8299 0.115999 30.1472 0.00399935 30.5579 0.00399935C30.9685 0.00399935 31.2812 0.115999 31.4959 0.339999C31.7105 0.554666 31.8179 0.876666 31.8179 1.306V5.8C31.8179 6.76133 31.6499 7.56867 31.3139 8.222C30.9872 8.866 30.4972 9.35133 29.8439 9.678C29.1905 9.99533 28.3879 10.154 27.4359 10.154ZM34.3805 7.214C34.1005 7.214 33.8672 7.12067 33.6805 6.934C33.4939 6.74733 33.4005 6.514 33.4005 6.234C33.4005 5.954 33.4939 5.72533 33.6805 5.548C33.8672 5.36133 34.1005 5.268 34.3805 5.268H37.1525C37.4325 5.268 37.6659 5.36133 37.8525 5.548C38.0392 5.72533 38.1325 5.954 38.1325 6.234C38.1325 6.514 38.0392 6.74733 37.8525 6.934C37.6659 7.12067 37.4325 7.214 37.1525 7.214H34.3805ZM41.1189 10C40.6802 10 40.3442 9.888 40.1109 9.664C39.8869 9.43067 39.7749 9.09933 39.7749 8.67V1.46C39.7749 1.03067 39.8869 0.704 40.1109 0.48C40.3442 0.246666 40.6802 0.129999 41.1189 0.129999H44.5349C45.2442 0.129999 45.8462 0.237333 46.3409 0.451999C46.8449 0.657333 47.2276 0.951333 47.4889 1.334C47.7502 1.71667 47.8809 2.16467 47.8809 2.678C47.8809 3.25667 47.7129 3.75133 47.3769 4.162C47.0502 4.57267 46.6022 4.85267 46.0329 5.002V4.778C46.7049 4.89933 47.2229 5.17 47.5869 5.59C47.9602 6.01 48.1469 6.54667 48.1469 7.2C48.1469 8.068 47.8342 8.754 47.2089 9.258C46.5929 9.75267 45.7482 10 44.6749 10H41.1189ZM42.2389 8.11H44.3249C44.8009 8.11 45.1462 8.02133 45.3609 7.844C45.5849 7.65733 45.6969 7.382 45.6969 7.018C45.6969 6.654 45.5849 6.38333 45.3609 6.206C45.1462 6.02867 44.8009 5.94 44.3249 5.94H42.2389V8.11ZM42.2389 4.05H44.0729C44.5396 4.05 44.8802 3.966 45.0949 3.798C45.3189 3.63 45.4309 3.37333 45.4309 3.028C45.4309 2.68267 45.3189 2.43067 45.0949 2.272C44.8802 2.104 44.5396 2.02 44.0729 2.02H42.2389V4.05ZM52.923 10.154C52.1577 10.154 51.4903 10.0093 50.921 9.72C50.3517 9.43067 49.9083 9.01533 49.591 8.474C49.2737 7.93267 49.115 7.29333 49.115 6.556C49.115 5.996 49.2037 5.49667 49.381 5.058C49.5583 4.61 49.815 4.232 50.151 3.924C50.487 3.60667 50.8883 3.36867 51.355 3.21C51.8217 3.042 52.3443 2.958 52.923 2.958C53.6883 2.958 54.3557 3.10267 54.925 3.392C55.4943 3.68133 55.933 4.09667 56.241 4.638C56.5583 5.17 56.717 5.80933 56.717 6.556C56.717 7.10667 56.6283 7.606 56.451 8.054C56.2737 8.502 56.017 8.88467 55.681 9.202C55.3543 9.51 54.953 9.748 54.477 9.916C54.0103 10.0747 53.4923 10.154 52.923 10.154ZM52.923 8.32C53.175 8.32 53.399 8.25933 53.595 8.138C53.791 8.00733 53.9403 7.816 54.043 7.564C54.155 7.30267 54.211 6.96667 54.211 6.556C54.211 5.93067 54.0897 5.48267 53.847 5.212C53.6043 4.932 53.2963 4.792 52.923 4.792C52.671 4.792 52.447 4.85267 52.251 4.974C52.055 5.09533 51.901 5.28667 51.789 5.548C51.677 5.8 51.621 6.136 51.621 6.556C51.621 7.172 51.7423 7.62 51.985 7.9C52.2277 8.18 52.5403 8.32 52.923 8.32ZM61.3449 10.154C60.5795 10.154 59.9122 10.0093 59.3429 9.72C58.7735 9.43067 58.3302 9.01533 58.0129 8.474C57.6955 7.93267 57.5369 7.29333 57.5369 6.556C57.5369 5.996 57.6255 5.49667 57.8029 5.058C57.9802 4.61 58.2369 4.232 58.5729 3.924C58.9089 3.60667 59.3102 3.36867 59.7769 3.21C60.2435 3.042 60.7662 2.958 61.3449 2.958C62.1102 2.958 62.7775 3.10267 63.3469 3.392C63.9162 3.68133 64.3549 4.09667 64.6629 4.638C64.9802 5.17 65.1389 5.80933 65.1389 6.556C65.1389 7.10667 65.0502 7.606 64.8729 8.054C64.6955 8.502 64.4389 8.88467 64.1029 9.202C63.7762 9.51 63.3749 9.748 62.8989 9.916C62.4322 10.0747 61.9142 10.154 61.3449 10.154ZM61.3449 8.32C61.5969 8.32 61.8209 8.25933 62.0169 8.138C62.2129 8.00733 62.3622 7.816 62.4649 7.564C62.5769 7.30267 62.6329 6.96667 62.6329 6.556C62.6329 5.93067 62.5115 5.48267 62.2689 5.212C62.0262 4.932 61.7182 4.792 61.3449 4.792C61.0929 4.792 60.8689 4.85267 60.6729 4.974C60.4769 5.09533 60.3229 5.28667 60.2109 5.548C60.0989 5.8 60.0429 6.136 60.0429 6.556C60.0429 7.172 60.1642 7.62 60.4069 7.9C60.6495 8.18 60.9622 8.32 61.3449 8.32ZM67.5127 10.126C67.1207 10.126 66.8174 10.0187 66.6027 9.804C66.3881 9.58933 66.2807 9.27667 66.2807 8.866V1.264C66.2807 0.853333 66.3881 0.540666 66.6027 0.325999C66.8174 0.111333 67.1207 0.00399935 67.5127 0.00399935C67.9141 0.00399935 68.2221 0.111333 68.4367 0.325999C68.6607 0.540666 68.7727 0.853333 68.7727 1.264V5.884H68.8007L70.5087 3.812C70.7421 3.532 70.9567 3.32667 71.1527 3.196C71.3581 3.056 71.6334 2.986 71.9787 2.986C72.3241 2.986 72.5901 3.07 72.7767 3.238C72.9634 3.406 73.0614 3.616 73.0707 3.868C73.0801 4.12 72.9774 4.372 72.7627 4.624L70.9147 6.808V5.94L72.9867 8.544C73.1921 8.80533 73.2761 9.062 73.2387 9.314C73.2014 9.55667 73.0801 9.75267 72.8747 9.902C72.6787 10.0513 72.4267 10.126 72.1187 10.126C71.7454 10.126 71.4467 10.0607 71.2227 9.93C70.9987 9.79 70.7747 9.57533 70.5507 9.286L68.8007 7.13H68.7727V8.866C68.7727 9.706 68.3527 10.126 67.5127 10.126Z" fill="black"/>
</svg>
