<svg id="Lager_1" data-name="Lager 1" xmlns="http://www.w3.org/2000/svg" viewBox="0 0 421.53 296.64"><defs><style>.cls-1{fill:#d8b76a;}</style></defs><path class="cls-1" d="M221.16,253.88l28.69,43.94h88l28.86-43.94a7.06,7.06,0,0,0-.43-14.11c-3.9,0-7.07,3.13-7.06,7.63L331,271.58,332.7,243a7.06,7.06,0,1,0-10.24-6.29,7.14,7.14,0,0,0,1.17,3.85l-16.52,28.79-8.33-31.6a6.94,6.94,0,0,0,2.11-5A7.07,7.07,0,1,0,289,237.94l-8.46,31.42-16.41-29a7.05,7.05,0,0,0-6-10.72,7.05,7.05,0,0,0-3,13.45l1.56,28.49-28.24-24.76a7.07,7.07,0,1,0-7.32,7Zm129.74,9.94-9.45,15.89h-9.12Zm-26.75-10.1-.91,26H309.82Zm-30.31-4.83,8.3,30.82H285.52Zm-16,30.82H264.42l-1.6-25.8Zm59.79,6.23-4,6.08H254l-4-6.08Zm-82.31-6.23h-9.11l-10-15.42Z" transform="translate(-86.62 -225.67)"/><path class="cls-1" d="M342.82,304.56l.6,7.08c3-.07,22.2.05,17.93,15.67L338.2,409,301.92,305.38H292.3L266.47,413.83l-33.79-92.57a9.28,9.28,0,0,1-.56-1.53,6.75,6.75,0,0,1-.11-3.18c.45-1.93,3.87-4.54,11.59-4.89v-7.1l-56.51.05.53,7.33a25.55,25.55,0,0,1,6.73,1.6c3.63,1.39,7.6,4,8.88,8.92l52.12,137.28h7.39l25.72-108.07,38,108.05,6.39-.39L368.36,333.7c0-.15,5.8-20.83,27.15-21.77l0-7.37ZM258.25,446.93,209.44,318.6a12.66,12.66,0,0,0-4.44-7.09l-.72-.63h22.38a10.18,10.18,0,0,0-2.16,6.1,14.28,14.28,0,0,0,.5,3.77,10.9,10.9,0,0,0,.53,1.56l38,103.42Zm70.9-2.52L291.44,339.3l5.73-23.22,37.72,105.83Zm45.69-132.88a32.74,32.74,0,0,0-3.5,2.82,26.12,26.12,0,0,0-1.9,1.86,48.3,48.3,0,0,0-4.63-4.7l-.75-.63h11.75Z" transform="translate(-86.62 -225.67)"/><path class="cls-1" d="M100.17,511.67h.08L107,491.36h6.31l-11.71,30.95H98.13L86.62,491.36h6.31Z" transform="translate(-86.62 -225.67)"/><path class="cls-1" d="M119.78,515.15l-2.48,6.36h-6.2l11.75-30.95h4.56l11.43,30.95h-6.27l-2.32-6.36Zm4.19-30a3.2,3.2,0,1,1-3.2-3.2A3.21,3.21,0,0,1,124,485.13Zm.88,14.27h-.08l-3.32,11h7.16Zm7.56-14.27a3.2,3.2,0,1,1-3.2-3.2A3.21,3.21,0,0,1,132.41,485.13Z" transform="translate(-86.62 -225.67)"/><path class="cls-1" d="M156.68,497.94a5.43,5.43,0,0,0-4.52-2.48,3.58,3.58,0,0,0-3.67,3.4c0,5.07,11.95,3,11.95,13.07,0,6-3.76,10.31-9.92,10.31-4.15,0-7.19-2.39-9.27-5.87l3.8-3.72c.8,2.32,2.92,4.4,5.43,4.4s3.88-2,3.88-4.36c0-3.12-2.88-4-5.24-4.92-3.87-1.6-6.71-3.56-6.71-8.23a8.78,8.78,0,0,1,8.79-9c2.68,0,6.4,1.32,8.24,3.36Z" transform="translate(-86.62 -225.67)"/><path class="cls-1" d="M176,521.44h-5.88v-25h-7.07V491.3h20v5.12H176Z" transform="translate(-86.62 -225.67)"/><path class="cls-1" d="M194.46,496.42v6.64h9.36v5.11h-9.36v8.16h9.72v5.11h-15.6V491.3h15.6v5.12Z" transform="translate(-86.62 -225.67)"/><path class="cls-1" d="M231.61,521.44H224.5l-7.32-12.15h-.08v12.15h-5.87V491.3h8c6,0,10.07,2.64,10.07,9.08,0,3.83-2.11,7.67-6.15,8.35ZM217.1,505.17h.76c3.24,0,5.52-1,5.52-4.63s-2.36-4.44-5.48-4.44h-.8Z" transform="translate(-86.62 -225.67)"/><path class="cls-1" d="M237.14,491.3h7.31c5.6,0,9,2.2,9,8.2,0,2.16-.76,4.63-2.64,5.83,3.56.64,5.16,4.24,5.16,7.56,0,5.92-4.16,8.55-9.64,8.55h-9.23ZM243,503.85h.72c2.88,0,4.28-.83,4.28-4s-1.76-3.88-4.24-3.88H243Zm0,12.88h1.24c3.16,0,5.88-.4,5.88-4.32s-3.2-4.08-6.16-4.08h-1Z" transform="translate(-86.62 -225.67)"/><path class="cls-1" d="M275.25,522.24c-9.2,0-14.91-7-14.91-15.91s5.91-15.83,14.91-15.83,14.91,6.88,14.91,15.83S284.44,522.24,275.25,522.24Zm0-25.94c-5.56,0-8.84,4.92-8.84,9.79,0,4.64,2.32,10.36,8.84,10.36s8.83-5.72,8.83-10.36C284.08,501.22,280.8,496.3,275.25,496.3Z" transform="translate(-86.62 -225.67)"/><path class="cls-1" d="M305.53,521.44h-5.88v-25h-7.08V491.3h20v5.12h-7.07Z" transform="translate(-86.62 -225.67)"/><path class="cls-1" d="M329.34,521.44h-5.87v-25h-7.08V491.3h20v5.12h-7.08Z" transform="translate(-86.62 -225.67)"/><path class="cls-1" d="M347.77,496.42v6.64h9.36v5.11h-9.36v8.16h9.72v5.11H341.9V491.3h15.59v5.12Z" transform="translate(-86.62 -225.67)"/><path class="cls-1" d="M364.39,490.5h4.24l15.87,21.07h.08V491.3h5.88V522h-4.24L370.35,501h-.08v20.46h-5.88Z" transform="translate(-86.62 -225.67)"/><path class="cls-1" d="M412,497.94a5.43,5.43,0,0,0-4.52-2.48,3.59,3.59,0,0,0-3.68,3.4c0,5.07,12,3,12,13.07,0,6-3.76,10.31-9.92,10.31-4.16,0-7.19-2.39-9.27-5.87l3.8-3.72c.79,2.32,2.91,4.4,5.43,4.4s3.88-2,3.88-4.36c0-3.12-2.88-4-5.24-4.92-3.88-1.6-6.71-3.56-6.71-8.23a8.77,8.77,0,0,1,8.79-9c2.68,0,6.4,1.32,8.24,3.36Z" transform="translate(-86.62 -225.67)"/><path class="cls-1" d="M435.11,522.24c-9.2,0-14.92-7-14.92-15.91s5.92-15.83,14.92-15.83S450,497.38,450,506.33,444.3,522.24,435.11,522.24Zm0-25.94c-5.56,0-8.84,4.92-8.84,9.79,0,4.64,2.32,10.36,8.84,10.36s8.83-5.72,8.83-10.36C443.94,501.22,440.66,496.3,435.11,496.3Z" transform="translate(-86.62 -225.67)"/><path class="cls-1" d="M469.23,497.94a5.41,5.41,0,0,0-4.51-2.48,3.59,3.59,0,0,0-3.68,3.4c0,5.07,11.95,3,11.95,13.07,0,6-3.76,10.31-9.91,10.31-4.16,0-7.2-2.39-9.28-5.87l3.8-3.72c.8,2.32,2.92,4.4,5.44,4.4s3.88-2,3.88-4.36c0-3.12-2.88-4-5.24-4.92-3.88-1.6-6.72-3.56-6.72-8.23a8.78,8.78,0,0,1,8.8-9c2.68,0,6.39,1.32,8.23,3.36Z" transform="translate(-86.62 -225.67)"/><path class="cls-1" d="M489.93,521.44h-5.87v-25H477V491.3h20v5.12h-7.08Z" transform="translate(-86.62 -225.67)"/><path class="cls-1" d="M500.48,494a3.84,3.84,0,1,1,3.83,3.86A3.82,3.82,0,0,1,500.48,494Zm.83,0a3,3,0,1,0,3-3A3,3,0,0,0,501.31,494Zm4.59,1.82h-.84l-.86-1.47h-.65v1.47h-.77v-3.69h1.79c.85,0,1.43.16,1.43,1.13a1,1,0,0,1-1,1.09Zm-1.31-2.13c.41,0,.66-.09.66-.49s-.49-.4-.85-.4h-.85v.89Z" transform="translate(-86.62 -225.67)"/></svg>