<svg width="293" height="73" viewBox="0 0 293 73" fill="none" xmlns="http://www.w3.org/2000/svg">
<path d="M21.568 1.76L13.216 24H8.992L0.608 1.76H4.512L11.104 20.256L17.728 1.76H21.568ZM23.4028 15.104C23.4028 13.3333 23.7654 11.7653 24.4908 10.4C25.2374 9.03467 26.2401 7.97867 27.4988 7.232C28.7788 6.464 30.1868 6.08 31.7228 6.08C33.1094 6.08 34.3148 6.35733 35.3388 6.912C36.3841 7.44533 37.2161 8.11733 37.8348 8.928V6.368H41.5148V24H37.8348V21.376C37.2161 22.208 36.3734 22.9013 35.3068 23.456C34.2401 24.0107 33.0241 24.288 31.6588 24.288C30.1441 24.288 28.7574 23.904 27.4988 23.136C26.2401 22.3467 25.2374 21.2587 24.4908 19.872C23.7654 18.464 23.4028 16.8747 23.4028 15.104ZM37.8348 15.168C37.8348 13.952 37.5788 12.896 37.0668 12C36.5761 11.104 35.9254 10.4213 35.1148 9.952C34.3041 9.48267 33.4294 9.248 32.4908 9.248C31.5521 9.248 30.6774 9.48267 29.8668 9.952C29.0561 10.4 28.3948 11.072 27.8828 11.968C27.3921 12.8427 27.1468 13.888 27.1468 15.104C27.1468 16.32 27.3921 17.3867 27.8828 18.304C28.3948 19.2213 29.0561 19.9253 29.8668 20.416C30.6988 20.8853 31.5734 21.12 32.4908 21.12C33.4294 21.12 34.3041 20.8853 35.1148 20.416C35.9254 19.9467 36.5761 19.264 37.0668 18.368C37.5788 17.4507 37.8348 16.384 37.8348 15.168ZM30.3148 4.16C29.7814 4.16 29.3228 3.97867 28.9388 3.616C28.5761 3.232 28.3948 2.77333 28.3948 2.24C28.3948 1.70667 28.5761 1.25867 28.9388 0.895998C29.3228 0.511999 29.7814 0.32 30.3148 0.32C30.8481 0.32 31.2961 0.511999 31.6588 0.895998C32.0428 1.25867 32.2348 1.70667 32.2348 2.24C32.2348 2.77333 32.0428 3.232 31.6588 3.616C31.2961 3.97867 30.8481 4.16 30.3148 4.16ZM35.8188 4.16C35.2854 4.16 34.8268 3.97867 34.4428 3.616C34.0801 3.232 33.8988 2.77333 33.8988 2.24C33.8988 1.70667 34.0801 1.25867 34.4428 0.895998C34.8268 0.511999 35.2854 0.32 35.8188 0.32C36.3521 0.32 36.8001 0.511999 37.1628 0.895998C37.5468 1.25867 37.7388 1.70667 37.7388 2.24C37.7388 2.77333 37.5468 3.232 37.1628 3.616C36.8001 3.97867 36.3521 4.16 35.8188 4.16ZM49.9543 8.928C50.4876 8.032 51.1916 7.33867 52.0663 6.848C52.9623 6.336 54.0183 6.08 55.2343 6.08V9.856H54.3063C52.8769 9.856 51.7889 10.2187 51.0423 10.944C50.3169 11.6693 49.9543 12.928 49.9543 14.72V24H46.3063V6.368H49.9543V8.928ZM62.2355 0.32V24H58.5875V0.32H62.2355ZM65.809 15.104C65.809 13.3333 66.1717 11.7653 66.897 10.4C67.6437 9.03467 68.6463 7.97867 69.905 7.232C71.185 6.464 72.6037 6.08 74.161 6.08C75.313 6.08 76.4437 6.336 77.553 6.848C78.6837 7.33867 79.5797 8 80.241 8.832V0.32H83.921V24H80.241V21.344C79.6437 22.1973 78.8117 22.9013 77.745 23.456C76.6997 24.0107 75.4943 24.288 74.129 24.288C72.593 24.288 71.185 23.904 69.905 23.136C68.6463 22.3467 67.6437 21.2587 66.897 19.872C66.1717 18.464 65.809 16.8747 65.809 15.104ZM80.241 15.168C80.241 13.952 79.985 12.896 79.473 12C78.9823 11.104 78.3317 10.4213 77.521 9.952C76.7103 9.48267 75.8357 9.248 74.897 9.248C73.9583 9.248 73.0837 9.48267 72.273 9.952C71.4623 10.4 70.801 11.072 70.289 11.968C69.7983 12.8427 69.553 13.888 69.553 15.104C69.553 16.32 69.7983 17.3867 70.289 18.304C70.801 19.2213 71.4623 19.9253 72.273 20.416C73.105 20.8853 73.9797 21.12 74.897 21.12C75.8357 21.12 76.7103 20.8853 77.521 20.416C78.3317 19.9467 78.9823 19.264 79.473 18.368C79.985 17.4507 80.241 16.384 80.241 15.168ZM104.873 14.752C104.873 15.4133 104.83 16.0107 104.745 16.544H91.2725C91.3792 17.952 91.9018 19.0827 92.8405 19.936C93.7792 20.7893 94.9312 21.216 96.2965 21.216C98.2592 21.216 99.6458 20.3947 100.457 18.752H104.392C103.859 20.3733 102.889 21.7067 101.481 22.752C100.094 23.776 98.3658 24.288 96.2965 24.288C94.6112 24.288 93.0965 23.9147 91.7525 23.168C90.4298 22.4 89.3845 21.3333 88.6165 19.968C87.8698 18.5813 87.4965 16.9813 87.4965 15.168C87.4965 13.3547 87.8592 11.7653 88.5845 10.4C89.3312 9.01333 90.3658 7.94667 91.6885 7.2C93.0325 6.45333 94.5685 6.08 96.2965 6.08C97.9605 6.08 99.4432 6.44267 100.745 7.168C102.046 7.89333 103.059 8.91733 103.785 10.24C104.51 11.5413 104.873 13.0453 104.873 14.752ZM101.065 13.6C101.043 12.256 100.563 11.1787 99.6245 10.368C98.6858 9.55733 97.5232 9.152 96.1365 9.152C94.8778 9.152 93.8005 9.55733 92.9045 10.368C92.0085 11.1573 91.4752 12.2347 91.3045 13.6H101.065ZM117.359 6.08C118.745 6.08 119.983 6.368 121.071 6.944C122.18 7.52 123.044 8.37333 123.663 9.504C124.281 10.6347 124.591 12 124.591 13.6V24H120.975V14.144C120.975 12.5653 120.58 11.36 119.791 10.528C119.001 9.67467 117.924 9.248 116.559 9.248C115.193 9.248 114.105 9.67467 113.295 10.528C112.505 11.36 112.111 12.5653 112.111 14.144V24H108.463V6.368H112.111V8.384C112.708 7.65867 113.465 7.09333 114.383 6.688C115.321 6.28267 116.313 6.08 117.359 6.08ZM135.644 24.288C134.257 24.288 133.009 24.0427 131.9 23.552C130.812 23.04 129.948 22.3573 129.308 21.504C128.668 20.6293 128.326 19.6587 128.284 18.592H132.06C132.124 19.3387 132.476 19.968 133.116 20.48C133.777 20.9707 134.598 21.216 135.58 21.216C136.604 21.216 137.393 21.024 137.948 20.64C138.524 20.2347 138.812 19.7227 138.812 19.104C138.812 18.4427 138.492 17.952 137.852 17.632C137.233 17.312 136.241 16.96 134.876 16.576C133.553 16.2133 132.476 15.8613 131.644 15.52C130.812 15.1787 130.086 14.656 129.468 13.952C128.87 13.248 128.572 12.32 128.572 11.168C128.572 10.2293 128.849 9.376 129.404 8.608C129.958 7.81867 130.748 7.2 131.772 6.752C132.817 6.304 134.012 6.08 135.356 6.08C137.361 6.08 138.972 6.592 140.188 7.616C141.425 8.61867 142.086 9.99467 142.172 11.744H138.524C138.46 10.9547 138.14 10.3253 137.564 9.856C136.988 9.38667 136.209 9.152 135.228 9.152C134.268 9.152 133.532 9.33333 133.02 9.696C132.508 10.0587 132.252 10.5387 132.252 11.136C132.252 11.6053 132.422 12 132.764 12.32C133.105 12.64 133.521 12.896 134.012 13.088C134.502 13.2587 135.228 13.4827 136.188 13.76C137.468 14.1013 138.513 14.4533 139.324 14.816C140.156 15.1573 140.87 15.6693 141.468 16.352C142.065 17.0347 142.374 17.9413 142.396 19.072C142.396 20.0747 142.118 20.9707 141.564 21.76C141.009 22.5493 140.22 23.168 139.196 23.616C138.193 24.064 137.009 24.288 135.644 24.288ZM21.568 49.76L13.216 72H8.992L0.608 49.76H4.512L11.104 68.256L17.728 49.76H21.568ZM23.4028 63.104C23.4028 61.3333 23.7654 59.7653 24.4908 58.4C25.2374 57.0347 26.2401 55.9787 27.4988 55.232C28.7788 54.464 30.1868 54.08 31.7228 54.08C33.1094 54.08 34.3148 54.3573 35.3388 54.912C36.3841 55.4453 37.2161 56.1173 37.8348 56.928V54.368H41.5148V72H37.8348V69.376C37.2161 70.208 36.3734 70.9013 35.3068 71.456C34.2401 72.0107 33.0241 72.288 31.6588 72.288C30.1441 72.288 28.7574 71.904 27.4988 71.136C26.2401 70.3467 25.2374 69.2587 24.4908 67.872C23.7654 66.464 23.4028 64.8747 23.4028 63.104ZM37.8348 63.168C37.8348 61.952 37.5788 60.896 37.0668 60C36.5761 59.104 35.9254 58.4213 35.1148 57.952C34.3041 57.4827 33.4294 57.248 32.4908 57.248C31.5521 57.248 30.6774 57.4827 29.8668 57.952C29.0561 58.4 28.3948 59.072 27.8828 59.968C27.3921 60.8427 27.1468 61.888 27.1468 63.104C27.1468 64.32 27.3921 65.3867 27.8828 66.304C28.3948 67.2213 29.0561 67.9253 29.8668 68.416C30.6988 68.8853 31.5734 69.12 32.4908 69.12C33.4294 69.12 34.3041 68.8853 35.1148 68.416C35.9254 67.9467 36.5761 67.264 37.0668 66.368C37.5788 65.4507 37.8348 64.384 37.8348 63.168ZM30.3148 52.16C29.7814 52.16 29.3228 51.9787 28.9388 51.616C28.5761 51.232 28.3948 50.7733 28.3948 50.24C28.3948 49.7067 28.5761 49.2587 28.9388 48.896C29.3228 48.512 29.7814 48.32 30.3148 48.32C30.8481 48.32 31.2961 48.512 31.6588 48.896C32.0428 49.2587 32.2348 49.7067 32.2348 50.24C32.2348 50.7733 32.0428 51.232 31.6588 51.616C31.2961 51.9787 30.8481 52.16 30.3148 52.16ZM35.8188 52.16C35.2854 52.16 34.8268 51.9787 34.4428 51.616C34.0801 51.232 33.8988 50.7733 33.8988 50.24C33.8988 49.7067 34.0801 49.2587 34.4428 48.896C34.8268 48.512 35.2854 48.32 35.8188 48.32C36.3521 48.32 36.8001 48.512 37.1628 48.896C37.5468 49.2587 37.7388 49.7067 37.7388 50.24C37.7388 50.7733 37.5468 51.232 37.1628 51.616C36.8001 51.9787 36.3521 52.16 35.8188 52.16ZM52.7063 72.288C51.3196 72.288 50.0716 72.0427 48.9623 71.552C47.8743 71.04 47.0103 70.3573 46.3703 69.504C45.7303 68.6293 45.3889 67.6587 45.3463 66.592H49.1223C49.1863 67.3387 49.5383 67.968 50.1783 68.48C50.8396 68.9707 51.6609 69.216 52.6423 69.216C53.6663 69.216 54.4556 69.024 55.0103 68.64C55.5863 68.2347 55.8743 67.7227 55.8743 67.104C55.8743 66.4427 55.5543 65.952 54.9143 65.632C54.2956 65.312 53.3036 64.96 51.9383 64.576C50.6156 64.2133 49.5383 63.8613 48.7063 63.52C47.8743 63.1787 47.1489 62.656 46.5303 61.952C45.9329 61.248 45.6343 60.32 45.6343 59.168C45.6343 58.2293 45.9116 57.376 46.4663 56.608C47.0209 55.8187 47.8103 55.2 48.8343 54.752C49.8796 54.304 51.0743 54.08 52.4183 54.08C54.4236 54.08 56.0343 54.592 57.2503 55.616C58.4876 56.6187 59.1489 57.9947 59.2343 59.744H55.5863C55.5223 58.9547 55.2023 58.3253 54.6263 57.856C54.0503 57.3867 53.2716 57.152 52.2903 57.152C51.3303 57.152 50.5943 57.3333 50.0823 57.696C49.5703 58.0587 49.3143 58.5387 49.3143 59.136C49.3143 59.6053 49.4849 60 49.8263 60.32C50.1676 60.64 50.5836 60.896 51.0743 61.088C51.5649 61.2587 52.2903 61.4827 53.2503 61.76C54.5303 62.1013 55.5756 62.4533 56.3863 62.816C57.2183 63.1573 57.9329 63.6693 58.5303 64.352C59.1276 65.0347 59.4369 65.9413 59.4583 67.072C59.4583 68.0747 59.1809 68.9707 58.6263 69.76C58.0716 70.5493 57.2823 71.168 56.2583 71.616C55.2556 72.064 54.0716 72.288 52.7063 72.288ZM67.656 57.344V67.104C67.656 67.7653 67.8053 68.2453 68.104 68.544C68.424 68.8213 68.9573 68.96 69.704 68.96H71.944V72H69.064C67.4213 72 66.1627 71.616 65.288 70.848C64.4133 70.08 63.976 68.832 63.976 67.104V57.344H61.896V54.368H63.976V49.984H67.656V54.368H71.944V57.344H67.656ZM91.4663 62.752C91.4663 63.4133 91.4236 64.0107 91.3383 64.544H77.8663C77.9729 65.952 78.4956 67.0827 79.4343 67.936C80.3729 68.7893 81.5249 69.216 82.8903 69.216C84.8529 69.216 86.2396 68.3947 87.0503 66.752H90.9862C90.4529 68.3733 89.4823 69.7067 88.0743 70.752C86.6876 71.776 84.9596 72.288 82.8903 72.288C81.2049 72.288 79.6903 71.9147 78.3463 71.168C77.0236 70.4 75.9783 69.3333 75.2103 67.968C74.4636 66.5813 74.0903 64.9813 74.0903 63.168C74.0903 61.3547 74.4529 59.7653 75.1783 58.4C75.9249 57.0133 76.9596 55.9467 78.2823 55.2C79.6263 54.4533 81.1623 54.08 82.8903 54.08C84.5543 54.08 86.0369 54.4427 87.3383 55.168C88.6396 55.8933 89.6529 56.9173 90.3783 58.24C91.1036 59.5413 91.4663 61.0453 91.4663 62.752ZM87.6583 61.6C87.6369 60.256 87.1569 59.1787 86.2183 58.368C85.2796 57.5573 84.1169 57.152 82.7303 57.152C81.4716 57.152 80.3943 57.5573 79.4983 58.368C78.6023 59.1573 78.0689 60.2347 77.8983 61.6H87.6583ZM98.7043 56.928C99.2376 56.032 99.9416 55.3387 100.816 54.848C101.712 54.336 102.768 54.08 103.984 54.08V57.856H103.056C101.627 57.856 100.539 58.2187 99.7923 58.944C99.0669 59.6693 98.7043 60.928 98.7043 62.72V72H95.0563V54.368H98.7043V56.928ZM110.986 56.992C111.604 56.1387 112.447 55.4453 113.514 54.912C114.602 54.3573 115.807 54.08 117.13 54.08C118.687 54.08 120.095 54.4533 121.354 55.2C122.612 55.9467 123.604 57.0133 124.33 58.4C125.055 59.7653 125.418 61.3333 125.418 63.104C125.418 64.8747 125.055 66.464 124.33 67.872C123.604 69.2587 122.602 70.3467 121.322 71.136C120.063 71.904 118.666 72.288 117.13 72.288C115.764 72.288 114.548 72.0213 113.482 71.488C112.436 70.9547 111.604 70.272 110.986 69.44V72H107.338V48.32H110.986V56.992ZM121.706 63.104C121.706 61.888 121.45 60.8427 120.938 59.968C120.447 59.072 119.786 58.4 118.954 57.952C118.143 57.4827 117.268 57.248 116.33 57.248C115.412 57.248 114.538 57.4827 113.706 57.952C112.895 58.4213 112.234 59.104 111.722 60C111.231 60.896 110.986 61.952 110.986 63.168C110.986 64.384 111.231 65.4507 111.722 66.368C112.234 67.264 112.895 67.9467 113.706 68.416C114.538 68.8853 115.412 69.12 116.33 69.12C117.268 69.12 118.143 68.8853 118.954 68.416C119.786 67.9253 120.447 67.2213 120.938 66.304C121.45 65.3867 121.706 64.32 121.706 63.104ZM136.673 72.288C135.009 72.288 133.505 71.9147 132.161 71.168C130.817 70.4 129.761 69.3333 128.993 67.968C128.225 66.5813 127.841 64.9813 127.841 63.168C127.841 61.376 128.236 59.7867 129.025 58.4C129.814 57.0133 130.892 55.9467 132.257 55.2C133.622 54.4533 135.148 54.08 136.833 54.08C138.518 54.08 140.044 54.4533 141.409 55.2C142.774 55.9467 143.852 57.0133 144.641 58.4C145.43 59.7867 145.825 61.376 145.825 63.168C145.825 64.96 145.42 66.5493 144.609 67.936C143.798 69.3227 142.689 70.4 141.281 71.168C139.894 71.9147 138.358 72.288 136.673 72.288ZM136.673 69.12C137.612 69.12 138.486 68.896 139.297 68.448C140.129 68 140.801 67.328 141.313 66.432C141.825 65.536 142.081 64.448 142.081 63.168C142.081 61.888 141.836 60.8107 141.345 59.936C140.854 59.04 140.204 58.368 139.393 57.92C138.582 57.472 137.708 57.248 136.769 57.248C135.83 57.248 134.956 57.472 134.145 57.92C133.356 58.368 132.726 59.04 132.257 59.936C131.788 60.8107 131.553 61.888 131.553 63.168C131.553 65.0667 132.033 66.5387 132.993 67.584C133.974 68.608 135.201 69.12 136.673 69.12ZM153.687 57.344V67.104C153.687 67.7653 153.837 68.2453 154.135 68.544C154.455 68.8213 154.989 68.96 155.735 68.96H157.975V72H155.095C153.453 72 152.194 71.616 151.319 70.848C150.445 70.08 150.007 68.832 150.007 67.104V57.344H147.927V54.368H150.007V49.984H153.687V54.368H157.975V57.344H153.687ZM165.594 57.344V67.104C165.594 67.7653 165.743 68.2453 166.042 68.544C166.362 68.8213 166.895 68.96 167.642 68.96H169.882V72H167.002C165.359 72 164.1 71.616 163.226 70.848C162.351 70.08 161.914 68.832 161.914 67.104V57.344H159.834V54.368H161.914V49.984H165.594V54.368H169.882V57.344H165.594ZM189.404 62.752C189.404 63.4133 189.361 64.0107 189.276 64.544H175.804C175.91 65.952 176.433 67.0827 177.372 67.936C178.31 68.7893 179.462 69.216 180.828 69.216C182.79 69.216 184.177 68.3947 184.988 66.752H188.924C188.39 68.3733 187.42 69.7067 186.012 70.752C184.625 71.776 182.897 72.288 180.828 72.288C179.142 72.288 177.628 71.9147 176.284 71.168C174.961 70.4 173.916 69.3333 173.148 67.968C172.401 66.5813 172.028 64.9813 172.028 63.168C172.028 61.3547 172.39 59.7653 173.116 58.4C173.862 57.0133 174.897 55.9467 176.22 55.2C177.564 54.4533 179.1 54.08 180.828 54.08C182.492 54.08 183.974 54.4427 185.276 55.168C186.577 55.8933 187.59 56.9173 188.316 58.24C189.041 59.5413 189.404 61.0453 189.404 62.752ZM185.596 61.6C185.574 60.256 185.094 59.1787 184.156 58.368C183.217 57.5573 182.054 57.152 180.668 57.152C179.409 57.152 178.332 57.5573 177.436 58.368C176.54 59.1573 176.006 60.2347 175.836 61.6H185.596ZM201.89 54.08C203.276 54.08 204.514 54.368 205.602 54.944C206.711 55.52 207.575 56.3733 208.194 57.504C208.812 58.6347 209.122 60 209.122 61.6V72H205.506V62.144C205.506 60.5653 205.111 59.36 204.322 58.528C203.532 57.6747 202.455 57.248 201.09 57.248C199.724 57.248 198.636 57.6747 197.826 58.528C197.036 59.36 196.642 60.5653 196.642 62.144V72H192.994V54.368H196.642V56.384C197.239 55.6587 197.996 55.0933 198.914 54.688C199.852 54.2827 200.844 54.08 201.89 54.08ZM220.175 72.288C218.788 72.288 217.54 72.0427 216.431 71.552C215.343 71.04 214.479 70.3573 213.839 69.504C213.199 68.6293 212.858 67.6587 212.815 66.592H216.591C216.655 67.3387 217.007 67.968 217.647 68.48C218.308 68.9707 219.13 69.216 220.111 69.216C221.135 69.216 221.924 69.024 222.479 68.64C223.055 68.2347 223.343 67.7227 223.343 67.104C223.343 66.4427 223.023 65.952 222.383 65.632C221.764 65.312 220.772 64.96 219.407 64.576C218.084 64.2133 217.007 63.8613 216.175 63.52C215.343 63.1787 214.618 62.656 213.999 61.952C213.402 61.248 213.103 60.32 213.103 59.168C213.103 58.2293 213.38 57.376 213.935 56.608C214.49 55.8187 215.279 55.2 216.303 54.752C217.348 54.304 218.543 54.08 219.887 54.08C221.892 54.08 223.503 54.592 224.719 55.616C225.956 56.6187 226.618 57.9947 226.703 59.744H223.055C222.991 58.9547 222.671 58.3253 222.095 57.856C221.519 57.3867 220.74 57.152 219.759 57.152C218.799 57.152 218.063 57.3333 217.551 57.696C217.039 58.0587 216.783 58.5387 216.783 59.136C216.783 59.6053 216.954 60 217.295 60.32C217.636 60.64 218.052 60.896 218.543 61.088C219.034 61.2587 219.759 61.4827 220.719 61.76C221.999 62.1013 223.044 62.4533 223.855 62.816C224.687 63.1573 225.402 63.6693 225.999 64.352C226.596 65.0347 226.906 65.9413 226.927 67.072C226.927 68.0747 226.65 68.9707 226.095 69.76C225.54 70.5493 224.751 71.168 223.727 71.616C222.724 72.064 221.54 72.288 220.175 72.288ZM238.517 72.288C236.853 72.288 235.349 71.9147 234.005 71.168C232.661 70.4 231.605 69.3333 230.837 67.968C230.069 66.5813 229.685 64.9813 229.685 63.168C229.685 61.376 230.079 59.7867 230.869 58.4C231.658 57.0133 232.735 55.9467 234.101 55.2C235.466 54.4533 236.991 54.08 238.677 54.08C240.362 54.08 241.887 54.4533 243.253 55.2C244.618 55.9467 245.695 57.0133 246.485 58.4C247.274 59.7867 247.669 61.376 247.669 63.168C247.669 64.96 247.263 66.5493 246.453 67.936C245.642 69.3227 244.533 70.4 243.125 71.168C241.738 71.9147 240.202 72.288 238.517 72.288ZM238.517 69.12C239.455 69.12 240.33 68.896 241.141 68.448C241.973 68 242.645 67.328 243.157 66.432C243.669 65.536 243.925 64.448 243.925 63.168C243.925 61.888 243.679 60.8107 243.189 59.936C242.698 59.04 242.047 58.368 241.237 57.92C240.426 57.472 239.551 57.248 238.613 57.248C237.674 57.248 236.799 57.472 235.989 57.92C235.199 58.368 234.57 59.04 234.101 59.936C233.631 60.8107 233.397 61.888 233.397 63.168C233.397 65.0667 233.877 66.5387 234.837 67.584C235.818 68.608 237.045 69.12 238.517 69.12ZM257.675 72.288C256.288 72.288 255.04 72.0427 253.931 71.552C252.843 71.04 251.979 70.3573 251.339 69.504C250.699 68.6293 250.358 67.6587 250.315 66.592H254.091C254.155 67.3387 254.507 67.968 255.147 68.48C255.808 68.9707 256.63 69.216 257.611 69.216C258.635 69.216 259.424 69.024 259.979 68.64C260.555 68.2347 260.843 67.7227 260.843 67.104C260.843 66.4427 260.523 65.952 259.883 65.632C259.264 65.312 258.272 64.96 256.907 64.576C255.584 64.2133 254.507 63.8613 253.675 63.52C252.843 63.1787 252.118 62.656 251.499 61.952C250.902 61.248 250.603 60.32 250.603 59.168C250.603 58.2293 250.88 57.376 251.435 56.608C251.99 55.8187 252.779 55.2 253.803 54.752C254.848 54.304 256.043 54.08 257.387 54.08C259.392 54.08 261.003 54.592 262.219 55.616C263.456 56.6187 264.118 57.9947 264.203 59.744H260.555C260.491 58.9547 260.171 58.3253 259.595 57.856C259.019 57.3867 258.24 57.152 257.259 57.152C256.299 57.152 255.563 57.3333 255.051 57.696C254.539 58.0587 254.283 58.5387 254.283 59.136C254.283 59.6053 254.454 60 254.795 60.32C255.136 60.64 255.552 60.896 256.043 61.088C256.534 61.2587 257.259 61.4827 258.219 61.76C259.499 62.1013 260.544 62.4533 261.355 62.816C262.187 63.1573 262.902 63.6693 263.499 64.352C264.096 65.0347 264.406 65.9413 264.427 67.072C264.427 68.0747 264.15 68.9707 263.595 69.76C263.04 70.5493 262.251 71.168 261.227 71.616C260.224 72.064 259.04 72.288 257.675 72.288ZM272.625 57.344V67.104C272.625 67.7653 272.774 68.2453 273.073 68.544C273.393 68.8213 273.926 68.96 274.673 68.96H276.913V72H274.033C272.39 72 271.131 71.616 270.257 70.848C269.382 70.08 268.945 68.832 268.945 67.104V57.344H266.865V54.368H268.945V49.984H272.625V54.368H276.913V57.344H272.625ZM286.163 49.44C287.443 49.44 288.584 49.728 289.587 50.304C290.611 50.88 291.4 51.68 291.955 52.704C292.531 53.7067 292.819 54.848 292.819 56.128C292.819 57.408 292.531 58.56 291.955 59.584C291.4 60.5867 290.611 61.376 289.587 61.952C288.584 62.528 287.443 62.816 286.163 62.816C284.883 62.816 283.731 62.528 282.707 61.952C281.704 61.376 280.915 60.5867 280.339 59.584C279.763 58.56 279.475 57.408 279.475 56.128C279.475 54.848 279.763 53.7067 280.339 52.704C280.915 51.68 281.704 50.88 282.707 50.304C283.731 49.728 284.883 49.44 286.163 49.44ZM286.163 61.344C287.699 61.344 288.926 60.864 289.843 59.904C290.782 58.944 291.251 57.6853 291.251 56.128C291.251 54.5707 290.782 53.312 289.843 52.352C288.926 51.392 287.699 50.912 286.163 50.912C284.606 50.912 283.368 51.392 282.451 52.352C281.534 53.312 281.075 54.5707 281.075 56.128C281.075 57.6853 281.534 58.944 282.451 59.904C283.368 60.864 284.606 61.344 286.163 61.344ZM289.107 54.848C289.107 55.3173 288.99 55.7333 288.755 56.096C288.52 56.4373 288.2 56.6933 287.795 56.864L289.491 59.488H287.059L285.651 57.088H285.427V59.488H283.411V52.608H286.643C287.39 52.608 287.987 52.8213 288.435 53.248C288.883 53.6533 289.107 54.1867 289.107 54.848ZM285.427 55.456H286.515C286.686 55.456 286.824 55.4133 286.931 55.328C287.059 55.2213 287.123 55.0827 287.123 54.912C287.123 54.7413 287.059 54.6133 286.931 54.528C286.824 54.4427 286.686 54.4 286.515 54.4H285.427V55.456Z" fill="black"/>
</svg>
